<svg width="66" height="81" viewBox="0 0 66 81" fill="none" xmlns="http://www.w3.org/2000/svg">
<path d="M33 80.4375C37.5375 80.4375 41.25 76.725 41.25 72.1875H24.75C24.75 76.725 28.4625 80.4375 33 80.4375ZM57.75 55.6875V35.0625C57.75 22.3988 51.0262 11.7975 39.1875 8.9925V6.1875C39.1875 2.76375 36.4237 0 33 0C29.5762 0 26.8125 2.76375 26.8125 6.1875V8.9925C15.015 11.7975 8.25 22.3575 8.25 35.0625V55.6875L0 63.9375V68.0625H66V63.9375L57.75 55.6875ZM49.5 59.8125H16.5V35.0625C16.5 24.8325 22.7287 16.5 33 16.5C43.2712 16.5 49.5 24.8325 49.5 35.0625V59.8125Z" fill="url(#paint0_linear)"/>
<defs>
<linearGradient id="paint0_linear" x1="15" y1="-0.3125" x2="33" y2="80.4375" gradientUnits="userSpaceOnUse">
<stop stop-color="#B9D6FA"/>
<stop offset="1" stop-color="#6F83E0"/>
</linearGradient>
</defs>
</svg>
