<svg width="23" height="28" viewBox="0 0 23 28" fill="none" xmlns="http://www.w3.org/2000/svg">
<g clip-path="url(#clip0)">
<path d="M22.6447 14.3422C22.6447 7.07344 17.6539 1.17883 11.4996 1.17883C5.34531 1.17883 0.354492 7.07344 0.354492 14.3422C0.354492 21.611 5.34531 27.5056 11.4996 27.5056C17.6539 27.5056 22.6447 21.611 22.6447 14.3422Z" fill="#76E6A2"/>
<path d="M17.636 9.93311C17.3754 9.13195 16.8409 9.25929 16.2614 9.39723C15.9155 9.48213 14.3746 10.0127 11.9444 13.0475C10.9336 14.305 10.2688 15.3078 9.82855 16.0718C9.55902 15.6845 9.25355 15.2653 8.93012 14.8886C7.93734 13.7161 6.82777 12.9096 6.78285 12.8778C6.32015 12.5435 5.71371 12.7133 5.42621 13.2651C5.1432 13.8116 5.28695 14.5278 5.74965 14.8674C5.75863 14.8727 6.71097 15.5677 7.52855 16.5387C8.3641 17.5255 9.12328 18.8626 9.13226 18.8785C9.31644 19.2074 9.6264 19.3984 9.95433 19.3984C10.0082 19.3984 10.0666 19.3931 10.125 19.3825C10.5114 19.3029 10.8168 18.9634 10.9112 18.5177C10.9157 18.5071 11.3065 17.2284 13.3684 14.6605C15.0305 12.5859 16.1401 11.928 16.5264 11.7476C16.5309 11.7476 16.5309 11.7476 16.5399 11.7476C16.5399 11.7476 16.5534 11.7423 16.5758 11.7264C16.6432 11.6946 16.6791 11.684 16.6791 11.684C16.6612 11.6893 16.6522 11.6893 16.6522 11.6893V11.684C16.8319 11.5938 17.1643 11.424 17.1688 11.4187C17.6674 11.164 17.8336 10.5273 17.636 9.93311Z" fill="white"/>
</g>
<defs>
<clipPath id="clip0">
<rect width="23" height="27.1651" fill="white" transform="translate(0 0.759644)"/>
</clipPath>
</defs>
</svg>
