<svg width="273" height="144" viewBox="0 0 273 144" fill="none" xmlns="http://www.w3.org/2000/svg">
<rect y="0.000244141" width="258" height="138" rx="18" fill="white"/>
<path d="M29.96 55.1802C28.5333 55.1802 27.3133 54.8869 26.3 54.3002C25.2867 53.7136 24.5067 52.8802 23.96 51.8002C23.4267 50.7069 23.16 49.4202 23.16 47.9402C23.16 46.4602 23.4267 45.1802 23.96 44.1002C24.5067 43.0202 25.2867 42.1869 26.3 41.6002C27.3133 41.0136 28.5333 40.7202 29.96 40.7202C30.92 40.7202 31.8133 40.8736 32.64 41.1802C33.48 41.4736 34.18 41.9002 34.74 42.4602L34.02 44.1202C33.4067 43.5736 32.7733 43.1802 32.12 42.9402C31.48 42.6869 30.78 42.5602 30.02 42.5602C28.5 42.5602 27.34 43.0269 26.54 43.9602C25.74 44.8936 25.34 46.2202 25.34 47.9402C25.34 49.6602 25.74 50.9936 26.54 51.9402C27.34 52.8736 28.5 53.3402 30.02 53.3402C30.78 53.3402 31.48 53.2202 32.12 52.9802C32.7733 52.7269 33.4067 52.3269 34.02 51.7802L34.74 53.4402C34.18 53.9869 33.48 54.4136 32.64 54.7202C31.8133 55.0269 30.92 55.1802 29.96 55.1802ZM40.4725 55.1802C39.4858 55.1802 38.6325 54.9736 37.9125 54.5602C37.1925 54.1469 36.6325 53.5669 36.2325 52.8202C35.8458 52.0602 35.6525 51.1602 35.6525 50.1202C35.6525 49.0802 35.8458 48.1869 36.2325 47.4402C36.6325 46.6802 37.1925 46.0936 37.9125 45.6802C38.6325 45.2669 39.4858 45.0602 40.4725 45.0602C41.4325 45.0602 42.2725 45.2669 42.9925 45.6802C43.7125 46.0936 44.2725 46.6802 44.6725 47.4402C45.0725 48.1869 45.2725 49.0802 45.2725 50.1202C45.2725 51.1602 45.0725 52.0602 44.6725 52.8202C44.2725 53.5669 43.7125 54.1469 42.9925 54.5602C42.2725 54.9736 41.4325 55.1802 40.4725 55.1802ZM40.4725 53.6202C41.2992 53.6202 41.9658 53.3202 42.4725 52.7202C42.9792 52.1202 43.2325 51.2536 43.2325 50.1202C43.2325 48.9869 42.9792 48.1269 42.4725 47.5402C41.9658 46.9402 41.2992 46.6402 40.4725 46.6402C39.6325 46.6402 38.9592 46.9402 38.4525 47.5402C37.9458 48.1269 37.6925 48.9869 37.6925 50.1202C37.6925 51.2536 37.9458 52.1202 38.4525 52.7202C38.9592 53.3202 39.6325 53.6202 40.4725 53.6202ZM47.5411 58.6002V45.2402H49.5211V46.9002C49.8011 46.3402 50.2278 45.8936 50.8011 45.5602C51.3744 45.2269 52.0344 45.0602 52.7811 45.0602C53.6478 45.0602 54.4011 45.2669 55.0411 45.6802C55.6944 46.0936 56.1944 46.6802 56.5411 47.4402C56.9011 48.1869 57.0811 49.0802 57.0811 50.1202C57.0811 51.1602 56.9011 52.0602 56.5411 52.8202C56.1944 53.5802 55.6944 54.1669 55.0411 54.5802C54.4011 54.9802 53.6478 55.1802 52.7811 55.1802C52.0611 55.1802 51.4144 55.0269 50.8411 54.7202C50.2811 54.4002 49.8544 53.9669 49.5611 53.4202V58.6002H47.5411ZM52.2811 53.6202C53.1211 53.6202 53.7878 53.3202 54.2811 52.7202C54.7878 52.1202 55.0411 51.2536 55.0411 50.1202C55.0411 48.9869 54.7878 48.1269 54.2811 47.5402C53.7878 46.9402 53.1211 46.6402 52.2811 46.6402C51.4411 46.6402 50.7678 46.9402 50.2611 47.5402C49.7678 48.1269 49.5211 48.9869 49.5211 50.1202C49.5211 51.2536 49.7678 52.1202 50.2611 52.7202C50.7678 53.3202 51.4411 53.6202 52.2811 53.6202ZM59.1775 42.9802V40.8802H61.5375V42.9802H59.1775ZM59.3575 55.0002V45.2402H61.3775V55.0002H59.3575ZM64.2208 55.0002V45.2402H66.1808V46.8602C66.5141 46.2736 66.9674 45.8269 67.5408 45.5202C68.1274 45.2136 68.7808 45.0602 69.5008 45.0602C71.8074 45.0602 72.9608 46.3669 72.9608 48.9802V55.0002H70.9408V49.1002C70.9408 48.2602 70.7741 47.6469 70.4408 47.2602C70.1208 46.8736 69.6141 46.6802 68.9208 46.6802C68.1074 46.6802 67.4541 46.9402 66.9608 47.4602C66.4808 47.9669 66.2408 48.6402 66.2408 49.4802V55.0002H64.2208ZM80.1642 58.7802C79.2842 58.7802 78.4642 58.6736 77.7042 58.4602C76.9442 58.2602 76.2709 57.9402 75.6842 57.5002L76.3042 56.0602C76.8909 56.4602 77.4909 56.7536 78.1042 56.9402C78.7176 57.1269 79.3576 57.2202 80.0242 57.2202C81.8909 57.2202 82.8242 56.2869 82.8242 54.4202V52.8802C82.5442 53.4669 82.1042 53.9269 81.5042 54.2602C80.9176 54.5936 80.2576 54.7602 79.5242 54.7602C78.6442 54.7602 77.8776 54.5602 77.2242 54.1602C76.5709 53.7469 76.0642 53.1802 75.7042 52.4602C75.3442 51.7269 75.1642 50.8736 75.1642 49.9002C75.1642 48.9402 75.3442 48.1002 75.7042 47.3802C76.0642 46.6469 76.5709 46.0802 77.2242 45.6802C77.8776 45.2669 78.6442 45.0602 79.5242 45.0602C80.2709 45.0602 80.9376 45.2269 81.5242 45.5602C82.1109 45.8936 82.5442 46.3536 82.8242 46.9402V45.2402H84.7842V54.1802C84.7842 55.7136 84.3909 56.8602 83.6042 57.6202C82.8176 58.3936 81.6709 58.7802 80.1642 58.7802ZM80.0042 53.1802C80.8576 53.1802 81.5376 52.8869 82.0442 52.3002C82.5509 51.7136 82.8042 50.9136 82.8042 49.9002C82.8042 48.8869 82.5509 48.0936 82.0442 47.5202C81.5376 46.9336 80.8576 46.6402 80.0042 46.6402C79.1509 46.6402 78.4709 46.9336 77.9642 47.5202C77.4576 48.0936 77.2042 48.8869 77.2042 49.9002C77.2042 50.9136 77.4576 51.7136 77.9642 52.3002C78.4709 52.8869 79.1509 53.1802 80.0042 53.1802ZM95.5131 55.0002L91.7931 45.2402H93.8731L96.4931 52.6402L99.1931 45.2402H100.753L103.413 52.6802L106.073 45.2402H108.053L104.333 55.0002H102.493L99.9131 48.0202L97.3531 55.0002H95.5131ZM109.607 42.9802V40.8802H111.967V42.9802H109.607ZM109.787 55.0002V45.2402H111.807V55.0002H109.787ZM118.81 55.1802C117.584 55.1802 116.67 54.8669 116.07 54.2402C115.47 53.6136 115.17 52.7069 115.17 51.5202V46.8002H113.27V45.2402H115.17V42.3002H117.19V45.2402H120.21V46.8002H117.19V51.3602C117.19 52.0669 117.337 52.6002 117.63 52.9602C117.937 53.3202 118.43 53.5002 119.11 53.5002C119.324 53.5002 119.53 53.4802 119.73 53.4402C119.93 53.3869 120.13 53.3269 120.33 53.2602L120.65 54.7802C120.45 54.9002 120.17 54.9936 119.81 55.0602C119.464 55.1402 119.13 55.1802 118.81 55.1802ZM121.955 55.0002V40.9002H123.975V46.7602C124.308 46.2002 124.755 45.7802 125.315 45.5002C125.888 45.2069 126.528 45.0602 127.235 45.0602C129.542 45.0602 130.695 46.3669 130.695 48.9802V55.0002H128.675V49.1002C128.675 48.2602 128.508 47.6469 128.175 47.2602C127.855 46.8736 127.348 46.6802 126.655 46.6802C125.842 46.6802 125.188 46.9402 124.695 47.4602C124.215 47.9669 123.975 48.6402 123.975 49.4802V55.0002H121.955ZM145.553 55.1802C144.019 55.1802 142.726 54.8936 141.673 54.3202C140.619 53.7336 139.819 52.9002 139.273 51.8202C138.739 50.7402 138.473 49.4536 138.473 47.9602C138.473 46.4802 138.746 45.2002 139.293 44.1202C139.839 43.0269 140.633 42.1869 141.673 41.6002C142.713 41.0136 143.959 40.7202 145.413 40.7202C146.413 40.7202 147.339 40.8669 148.193 41.1602C149.046 41.4536 149.759 41.8736 150.333 42.4202L149.593 44.0402C148.953 43.5069 148.299 43.1269 147.633 42.9002C146.966 42.6602 146.226 42.5402 145.413 42.5402C143.853 42.5402 142.666 43.0136 141.853 43.9602C141.039 44.8936 140.633 46.2269 140.633 47.9602C140.633 49.7336 141.046 51.0802 141.873 52.0002C142.713 52.9202 143.966 53.3802 145.633 53.3802C146.646 53.3802 147.653 53.2136 148.653 52.8802V49.1002H145.213V47.5402H150.393V54.1802C149.793 54.4736 149.046 54.7136 148.153 54.9002C147.273 55.0869 146.406 55.1802 145.553 55.1802ZM153.361 55.0002V45.2402H155.321V46.9802C155.828 45.8202 156.881 45.1736 158.481 45.0402L159.141 45.0002L159.281 46.7202L158.061 46.8402C156.288 47.0136 155.401 47.9269 155.401 49.5802V55.0002H153.361ZM160.642 42.9802V40.8802H163.002V42.9802H160.642ZM160.822 55.0002V45.2402H162.842V55.0002H160.822ZM170.266 55.1802C168.666 55.1802 167.406 54.7336 166.486 53.8402C165.566 52.9336 165.106 51.7002 165.106 50.1402C165.106 49.1402 165.306 48.2602 165.706 47.5002C166.119 46.7269 166.686 46.1269 167.406 45.7002C168.126 45.2736 168.952 45.0602 169.886 45.0602C171.232 45.0602 172.292 45.4936 173.066 46.3602C173.839 47.2136 174.226 48.3936 174.226 49.9002V50.5802H167.066C167.212 52.6069 168.286 53.6202 170.286 53.6202C170.846 53.6202 171.392 53.5336 171.926 53.3602C172.472 53.1869 172.986 52.9002 173.466 52.5002L174.066 53.9002C173.626 54.3002 173.059 54.6136 172.366 54.8402C171.672 55.0669 170.972 55.1802 170.266 55.1802ZM169.966 46.4802C169.126 46.4802 168.459 46.7402 167.966 47.2602C167.472 47.7802 167.172 48.4736 167.066 49.3402H172.526C172.486 48.4336 172.246 47.7336 171.806 47.2402C171.366 46.7336 170.752 46.4802 169.966 46.4802ZM176.988 55.0002V46.8002H175.088V45.2402H176.988V45.0602C176.988 43.7136 177.328 42.7002 178.008 42.0202C178.702 41.3402 179.762 40.9602 181.188 40.8802L182.068 40.8202L182.208 42.3402L181.288 42.4002C180.475 42.4536 179.888 42.6736 179.528 43.0602C179.182 43.4469 179.008 44.0202 179.008 44.7802V45.2402H181.748V46.8002H179.008V55.0002H176.988Z" fill="#6A6E82"/>
<path d="M167.049 114.096C152.569 100.601 151.273 76.9979 164.154 61.3762C177.035 45.7544 199.216 44.0301 213.696 57.5247C228.177 71.0194 229.473 94.6229 216.591 110.245C203.71 125.866 181.529 127.591 167.049 114.096Z" fill="url(#paint0_radial)"/>
<rect y="0.000244141" width="258" height="138" rx="18" fill="white"/>
<path d="M183.903 86.4106C183.903 95.5448 177.587 102.949 169.795 102.949C162.004 102.949 155.688 95.5448 155.688 86.4106C155.688 77.2765 162.004 69.8718 169.795 69.8718C177.587 69.8718 183.903 77.2765 183.903 86.4106Z" fill="url(#paint1_radial)"/>
<g filter="url(#filter0_f)">
<path d="M60.8857 119.864C60.8857 119.864 44.2131 104.148 47.4064 105.418C51.398 107.007 52.9947 73.6469 56.1879 89.5327C57.6198 87.3 59.9164 88.6024 60.8857 89.5327L66.5199 100.846C68.0344 101.811 68.9222 89.3472 71.6848 85.2966C75.138 80.2335 77.1372 73.7236 79.1364 78.4252C81.1357 83.1267 85.5025 78.4252 86.0683 78.4252C86.6341 78.4252 88.525 56.8809 91.637 66.4512C94.749 76.0214 98.2967 68.7238 100.56 78.4252C102.823 88.1266 108.359 76.9346 108.925 89.5327C109.491 102.131 117.848 105.418 117.848 105.418C117.848 105.418 126.273 98.896 132.459 105.418C138.644 111.941 140.191 112.16 142.897 105.418C145.603 98.6764 147.15 91.9345 149.856 98.6765C156.351 98.6765 158.748 103.171 159.135 105.418C160.037 106.219 162.537 105.991 165.321 98.6765C178.465 89.5327 177.306 91.9345 178.852 98.6765C188.276 86.1331 193.282 81.626 194.827 84.6017C194.309 82.3295 194.195 79.1659 200.502 89.5327C210.168 105.418 217.513 112.16 224.859 105.418C232.205 98.6764 226.019 69.4325 241.484 89.5327C246.332 91.3823 249.393 93.889 251.233 96.5026C255.413 78.73 263.403 81.504 267 85.2966L250.762 138H66.5199L60.8857 119.864Z" fill="url(#paint2_linear)"/>
</g>
<g filter="url(#filter1_f)">
<path d="M52.8226 122.56C52.8226 122.56 36.2258 109.18 39.4046 110.262C43.3781 111.614 44.9674 83.213 48.1462 96.7373C49.5715 94.8365 51.8577 95.9453 52.8226 96.7373L58.4312 106.369C59.9388 107.19 60.8226 96.5794 63.5726 93.131C67.0101 88.8204 69.0002 83.2783 70.9904 87.2809C72.9805 91.2836 77.3275 87.2809 77.8907 87.2809C78.4539 87.2809 80.3362 68.9392 83.4341 77.0868C86.5319 85.2345 90.0635 79.0216 92.3165 87.2809C94.5695 95.5402 100.08 86.0119 100.644 96.7373C101.207 107.463 109.526 110.262 109.526 110.262C109.526 110.262 117.912 104.709 124.07 110.262C130.228 115.815 131.767 116.001 134.461 110.262C137.155 104.522 138.695 98.7821 141.389 104.522C147.854 104.522 150.24 108.348 150.625 110.262C151.523 110.943 154.012 110.75 156.783 104.522C169.868 96.7373 168.713 98.7821 170.253 104.522C179.633 93.8431 184.617 90.006 186.155 92.5393C185.639 90.6049 185.526 87.9116 191.805 96.7373C201.426 110.262 208.738 116.001 216.051 110.262C223.363 104.522 217.205 79.625 232.599 96.7373C237.426 98.312 240.473 100.446 242.305 102.671C246.465 87.5404 254.419 89.9021 258 93.131L241.836 138H58.4312L52.8226 122.56Z" fill="#E1EFFF"/>
</g>
<defs>
<filter id="filter0_f" x="41" y="58.0002" width="232" height="86" filterUnits="userSpaceOnUse" color-interpolation-filters="sRGB">
<feFlood flood-opacity="0" result="BackgroundImageFix"/>
<feBlend mode="normal" in="SourceGraphic" in2="BackgroundImageFix" result="shape"/>
<feGaussianBlur stdDeviation="3" result="effect1_foregroundBlur"/>
</filter>
<filter id="filter1_f" x="33" y="69.0002" width="231" height="75" filterUnits="userSpaceOnUse" color-interpolation-filters="sRGB">
<feFlood flood-opacity="0" result="BackgroundImageFix"/>
<feBlend mode="normal" in="SourceGraphic" in2="BackgroundImageFix" result="shape"/>
<feGaussianBlur stdDeviation="3" result="effect1_foregroundBlur"/>
</filter>
<radialGradient id="paint0_radial" cx="0" cy="0" r="1" gradientUnits="userSpaceOnUse" gradientTransform="translate(205.914 107.715) rotate(-134.207) scale(73.7991 67.8856)">
<stop offset="0.339955" stop-color="#FFF1BE"/>
<stop offset="0.586313" stop-color="#FFF2D1"/>
<stop offset="1" stop-color="white" stop-opacity="0"/>
</radialGradient>
<radialGradient id="paint1_radial" cx="0" cy="0" r="1" gradientUnits="userSpaceOnUse" gradientTransform="translate(171.888 74.4246) rotate(92.356) scale(33.9425 26.2592)">
<stop offset="0.339955" stop-color="#FFE1D0"/>
<stop offset="0.586313" stop-color="#FCEEE2"/>
<stop offset="1" stop-color="white" stop-opacity="0"/>
</radialGradient>
<linearGradient id="paint2_linear" x1="152.488" y1="192.174" x2="152.488" y2="90.3333" gradientUnits="userSpaceOnUse">
<stop offset="0.666667" stop-color="#B8E4FD" stop-opacity="0.75"/>
<stop offset="1" stop-color="#D9EFF3" stop-opacity="0.34"/>
</linearGradient>
</defs>
</svg>
