<svg width="273" height="162" viewBox="0 0 273 162" fill="none" xmlns="http://www.w3.org/2000/svg">
<path d="M257.448 80.4758C250.19 85.5808 211.183 108.612 195.264 100.346C175.364 90.0125 174.942 55.9823 141.465 56.6491C107.987 57.3159 98.0704 126.348 95.0026 130.046" stroke="url(#paint0_radial)" stroke-width="20"/>
<rect x="0.00292969" y="0.000366211" width="258" height="138" rx="18" fill="white"/>
<path d="M266.152 94.0197C260.561 97.9526 230.51 115.696 218.245 109.328C202.914 101.367 202.589 75.1496 176.798 75.6634C151.007 76.1771 143.367 129.36 141.003 132.209" stroke="url(#paint1_radial)" stroke-width="20"/>
<g filter="url(#filter0_f)">
<path d="M197.277 55.4875C201.548 60.1598 200.97 67.266 195.986 71.3597C191.002 75.4533 183.499 74.9842 179.227 70.3119C174.956 65.6396 175.534 58.5334 180.518 54.4397C185.502 50.3461 193.005 50.8152 197.277 55.4875Z" fill="url(#paint2_linear)"/>
<path d="M197.277 55.4875C201.548 60.1598 200.97 67.266 195.986 71.3597C191.002 75.4533 183.499 74.9842 179.227 70.3119C174.956 65.6396 175.534 58.5334 180.518 54.4397C185.502 50.3461 193.005 50.8152 197.277 55.4875Z" fill="white"/>
</g>
<path d="M231.036 76.4054C233.227 72.3158 237.769 71.4208 241.181 74.4065C244.593 77.3922 245.583 83.1278 243.392 87.2175C241.202 91.3071 236.66 92.2021 233.248 89.2164C229.836 86.2308 228.846 80.4951 231.036 76.4054Z" fill="url(#paint3_radial)"/>
<path d="M215.839 89.0284C217.661 85.6273 221.323 84.7825 224.019 87.1414C226.715 89.5003 227.423 94.1697 225.601 97.5708C223.78 100.972 220.117 101.817 217.422 99.4577C214.726 97.0988 214.017 92.4294 215.839 89.0284Z" fill="url(#paint4_radial)"/>
<defs>
<filter id="filter0_f" x="165.366" y="40.6518" width="45.7711" height="44.4958" filterUnits="userSpaceOnUse" color-interpolation-filters="sRGB">
<feFlood flood-opacity="0" result="BackgroundImageFix"/>
<feBlend mode="normal" in="SourceGraphic" in2="BackgroundImageFix" result="shape"/>
<feGaussianBlur stdDeviation="5.5" result="effect1_foregroundBlur"/>
</filter>
<radialGradient id="paint0_radial" cx="0" cy="0" r="1" gradientUnits="userSpaceOnUse" gradientTransform="translate(165.767 75.0776) rotate(27.2574) scale(97.9331 364.571)">
<stop stop-color="#FFDFDF"/>
<stop offset="0.354167" stop-color="#FFE6F2"/>
<stop offset="1" stop-color="white" stop-opacity="0"/>
</radialGradient>
<radialGradient id="paint1_radial" cx="0" cy="0" r="1" gradientUnits="userSpaceOnUse" gradientTransform="translate(195.521 89.8609) rotate(27.2574) scale(75.4486 280.869)">
<stop stop-color="#FFDFDF"/>
<stop offset="0.354167" stop-color="#FFE6F2"/>
<stop offset="1" stop-color="white" stop-opacity="0"/>
</radialGradient>
<linearGradient id="paint2_linear" x1="180.518" y1="54.4397" x2="195.048" y2="72.1304" gradientUnits="userSpaceOnUse">
<stop stop-color="white"/>
<stop offset="1" stop-color="white" stop-opacity="0"/>
</linearGradient>
<radialGradient id="paint3_radial" cx="0" cy="0" r="1" gradientUnits="userSpaceOnUse" gradientTransform="translate(233.423 86.376) rotate(-59.1666) scale(17.0611 15.0438)">
<stop offset="0.229167" stop-color="#EFDAFF"/>
<stop offset="0.583333" stop-color="#E4D7FF" stop-opacity="0.540541"/>
<stop offset="1" stop-color="white" stop-opacity="0"/>
</radialGradient>
<radialGradient id="paint4_radial" cx="0" cy="0" r="1" gradientUnits="userSpaceOnUse" gradientTransform="translate(217.606 97.1288) rotate(-59.3005) scale(14.1945 11.8807)">
<stop offset="0.229167" stop-color="#EFDAFF"/>
<stop offset="0.583333" stop-color="#E4D7FF" stop-opacity="0.540541"/>
<stop offset="1" stop-color="white" stop-opacity="0"/>
</radialGradient>
</defs>
</svg>
