<svg width="61" height="80" viewBox="0 0 61 80" fill="none" xmlns="http://www.w3.org/2000/svg">
<path d="M53.0833 26.5417H49.2917V18.9583C49.2917 8.49333 40.7983 0 30.3333 0C19.8683 0 11.375 8.49333 11.375 18.9583V26.5417H7.58333C3.4125 26.5417 0 29.9542 0 34.125V72.0417C0 76.2125 3.4125 79.625 7.58333 79.625H53.0833C57.2542 79.625 60.6667 76.2125 60.6667 72.0417V34.125C60.6667 29.9542 57.2542 26.5417 53.0833 26.5417ZM30.3333 60.6667C26.1625 60.6667 22.75 57.2542 22.75 53.0833C22.75 48.9125 26.1625 45.5 30.3333 45.5C34.5042 45.5 37.9167 48.9125 37.9167 53.0833C37.9167 57.2542 34.5042 60.6667 30.3333 60.6667ZM42.0875 26.5417H18.5792V18.9583C18.5792 12.4746 23.8496 7.20417 30.3333 7.20417C36.8171 7.20417 42.0875 12.4746 42.0875 18.9583V26.5417Z" fill="url(#paint0_linear)"/>
<defs>
<linearGradient id="paint0_linear" x1="19.333" y1="21.7083" x2="42.5" y2="88.5" gradientUnits="userSpaceOnUse">
<stop stop-color="#B9D6FA"/>
<stop offset="1" stop-color="#6F83E0"/>
</linearGradient>
</defs>
</svg>
