<svg width="193" height="62" viewBox="0 0 193 62" fill="none" xmlns="http://www.w3.org/2000/svg">
<path d="M74.1549 42L63.2699 17.325H67.1549L75.7999 37.415L84.4449 17.325H88.1549L77.2699 42H74.1549ZM90.1567 20.965V17.29H94.2867V20.965H90.1567ZM90.4717 42V24.92H94.0067V42H90.4717ZM106.262 42.315C104.116 42.315 102.517 41.7667 101.467 40.67C100.417 39.5733 99.8925 37.9867 99.8925 35.91V27.65H96.5675V24.92H99.8925V19.775H103.427V24.92H108.712V27.65H103.427V35.63C103.427 36.8667 103.684 37.8 104.197 38.43C104.734 39.06 105.597 39.375 106.787 39.375C107.161 39.375 107.522 39.34 107.872 39.27C108.222 39.1767 108.572 39.0717 108.922 38.955L109.482 41.615C109.132 41.825 108.642 41.9883 108.012 42.105C107.406 42.245 106.822 42.315 106.262 42.315ZM117.226 42.315C116.036 42.315 114.974 42.0817 114.041 41.615C113.107 41.1483 112.361 40.5183 111.801 39.725C111.264 38.9317 110.996 38.0333 110.996 37.03C110.996 35.77 111.311 34.7783 111.941 34.055C112.594 33.3317 113.656 32.8067 115.126 32.48C116.619 32.1533 118.626 31.99 121.146 31.99H122.336V31.08C122.336 29.75 122.056 28.7933 121.496 28.21C120.936 27.6267 120.014 27.335 118.731 27.335C117.751 27.335 116.771 27.4867 115.791 27.79C114.811 28.07 113.807 28.525 112.781 29.155L111.696 26.67C112.582 26.04 113.691 25.5383 115.021 25.165C116.351 24.7917 117.622 24.605 118.836 24.605C121.169 24.605 122.896 25.165 124.016 26.285C125.136 27.3817 125.696 29.1083 125.696 31.465V42H122.371V39.165C121.951 40.145 121.297 40.915 120.411 41.475C119.524 42.035 118.462 42.315 117.226 42.315ZM117.926 39.795C119.186 39.795 120.236 39.3517 121.076 38.465C121.916 37.5783 122.336 36.4583 122.336 35.105V34.16H121.181C119.477 34.16 118.136 34.2417 117.156 34.405C116.199 34.5683 115.511 34.8483 115.091 35.245C114.694 35.6183 114.496 36.1433 114.496 36.82C114.496 37.7067 114.799 38.43 115.406 38.99C116.012 39.5267 116.852 39.795 117.926 39.795ZM136.129 42.315C134.263 42.315 132.863 41.79 131.929 40.74C131.019 39.69 130.564 38.15 130.564 36.12V17.325H134.099V35.91C134.099 38.22 135.044 39.375 136.934 39.375C137.214 39.375 137.471 39.3633 137.704 39.34C137.961 39.3167 138.218 39.27 138.474 39.2L138.404 42.035C137.611 42.2217 136.853 42.315 136.129 42.315ZM140.948 20.965V17.29H145.078V20.965H140.948ZM141.263 42V24.92H144.798V42H141.263ZM149.108 42V39.69L158.418 27.65H149.108V24.92H162.303V27.265L152.993 39.305H162.688V42H149.108ZM173.819 42.315C171.019 42.315 168.814 41.5333 167.204 39.97C165.594 38.3833 164.789 36.225 164.789 33.495C164.789 31.745 165.139 30.205 165.839 28.875C166.562 27.5217 167.554 26.4717 168.814 25.725C170.074 24.9783 171.52 24.605 173.154 24.605C175.51 24.605 177.365 25.3633 178.719 26.88C180.072 28.3733 180.749 30.4383 180.749 33.075V34.265H168.219C168.475 37.8117 170.354 39.585 173.854 39.585C174.834 39.585 175.79 39.4333 176.724 39.13C177.68 38.8267 178.579 38.325 179.419 37.625L180.469 40.075C179.699 40.775 178.707 41.3233 177.494 41.72C176.28 42.1167 175.055 42.315 173.819 42.315ZM173.294 27.09C171.824 27.09 170.657 27.545 169.794 28.455C168.93 29.365 168.405 30.5783 168.219 32.095H177.774C177.704 30.5083 177.284 29.2833 176.514 28.42C175.744 27.5333 174.67 27.09 173.294 27.09Z" fill="url(#paint0_linear)"/>
<mask id="path-2-inside-1" fill="white">
<path fill-rule="evenodd" clip-rule="evenodd" d="M22.5613 24.9323L22.5057 24.9517C22.0967 25.0942 21.9062 25.2697 21.8072 25.4022C21.7035 25.5412 21.6298 25.7285 21.6047 25.9926C21.5501 26.5677 21.7483 27.2939 22.0164 27.8701C22.5554 28.9825 23.4678 30.6829 24.4734 32.0964C24.9801 32.8086 25.4737 33.3954 25.9186 33.7939C26.0496 33.9113 26.1618 33.9992 26.2556 34.065C26.3493 33.9992 26.4615 33.9113 26.5926 33.7939C27.0375 33.3954 27.5311 32.8086 28.0377 32.0964C29.0434 30.6829 29.9558 28.9825 30.4948 27.8701C30.7629 27.2939 30.9611 26.5677 30.9064 25.9926C30.8813 25.7285 30.8077 25.5412 30.7039 25.4022C30.605 25.2697 30.4144 25.0942 30.0055 24.9517C29.9652 24.9377 29.9263 24.924 29.8888 24.9107C29.74 24.9582 29.581 24.9809 29.4165 24.9745C28.6344 24.9441 28.0244 24.2659 28.054 23.4598C28.067 23.105 28.2017 22.7846 28.4151 22.5395C28.4617 22.4497 28.5161 22.3666 28.5762 22.291C28.7009 22.1344 28.8373 22.0258 28.9527 21.9525C29.0673 21.8797 29.1735 21.8337 29.2552 21.8043C29.338 21.7745 29.4113 21.7562 29.4684 21.7446C29.5794 21.722 29.6716 21.7162 29.7288 21.7144C29.7897 21.7125 29.8413 21.7145 29.8791 21.7169C29.918 21.7194 29.9522 21.723 29.9798 21.7265C30.0342 21.7333 30.0813 21.7418 30.1172 21.7492C30.1889 21.7637 30.255 21.7813 30.3106 21.7978C30.4199 21.8303 30.5471 21.8761 30.6748 21.9357C30.7396 21.966 30.8188 22.0065 30.9028 22.0587C30.9223 22.0708 30.943 22.0842 30.9647 22.0989L31.0211 22.1186C31.9114 22.4288 32.6189 22.9259 33.116 23.5914C33.6082 24.2505 33.8284 24.9865 33.8939 25.6764C34.0203 27.0063 33.5894 28.3062 33.2069 29.124L33.2026 29.1332L33.1982 29.1424C32.6209 30.3348 31.622 32.207 30.4771 33.8163C29.907 34.6176 29.2639 35.4064 28.5819 36.0173C28.1371 36.4157 27.5721 36.8333 26.9168 37.068L26.2849 35.6122C26.303 35.6044 26.3135 35.6023 26.3135 35.6023C26.3135 35.6023 26.3127 35.6025 26.3111 35.6027C26.3023 35.6039 26.2822 35.6054 26.2521 35.6033C26.2378 35.6023 26.2234 35.6006 26.2097 35.5985C26.1959 35.5963 26.1846 35.5939 26.1766 35.592L26.1687 35.5899L26.1715 35.5908C26.1742 35.5917 26.1798 35.5936 26.1882 35.5968C26.1965 35.5999 26.2093 35.6049 26.2261 35.6122L25.5943 37.0679C24.939 36.8332 24.374 36.4157 23.9292 36.0173C23.2473 35.4064 22.6042 34.6176 22.0341 33.8163C20.8891 32.207 19.8903 30.3348 19.313 29.1424L19.3085 29.1332L19.3042 29.124C18.9218 28.3062 18.4908 27.0063 18.6172 25.6764C18.6828 24.9865 18.903 24.2505 19.3952 23.5914C19.8922 22.9259 20.5997 22.4288 21.49 22.1186C21.9293 21.9656 22.1535 21.88 22.2536 21.8411L22.3182 21.8158C22.3265 21.8125 22.3404 21.8071 22.355 21.8016L22.3559 21.8013C22.3635 21.7984 22.4076 21.7817 22.4607 21.7657L22.4625 21.7652C22.4795 21.76 22.5838 21.7281 22.7176 21.7123L22.7217 21.7118C22.7694 21.706 23.0115 21.6765 23.3027 21.7586C23.4691 21.8054 23.784 21.9255 24.0498 22.2382C24.2471 22.4704 24.3509 22.7294 24.391 22.9748C24.437 23.1098 24.4644 23.2541 24.47 23.4046C24.4995 24.2107 23.8895 24.8889 23.1075 24.9193C22.9746 24.9245 22.8454 24.9107 22.7222 24.8802L22.7048 24.9669C22.6597 24.9574 22.6116 24.946 22.5613 24.9323ZM29.705 22.0683L29.7062 22.0745L29.6896 22.0717C29.6973 22.0699 29.7024 22.0688 29.7047 22.0683L29.705 22.0683Z"/>
</mask>
<path fill-rule="evenodd" clip-rule="evenodd" d="M22.5613 24.9323L22.5057 24.9517C22.0967 25.0942 21.9062 25.2697 21.8072 25.4022C21.7035 25.5412 21.6298 25.7285 21.6047 25.9926C21.5501 26.5677 21.7483 27.2939 22.0164 27.8701C22.5554 28.9825 23.4678 30.6829 24.4734 32.0964C24.9801 32.8086 25.4737 33.3954 25.9186 33.7939C26.0496 33.9113 26.1618 33.9992 26.2556 34.065C26.3493 33.9992 26.4615 33.9113 26.5926 33.7939C27.0375 33.3954 27.5311 32.8086 28.0377 32.0964C29.0434 30.6829 29.9558 28.9825 30.4948 27.8701C30.7629 27.2939 30.9611 26.5677 30.9064 25.9926C30.8813 25.7285 30.8077 25.5412 30.7039 25.4022C30.605 25.2697 30.4144 25.0942 30.0055 24.9517C29.9652 24.9377 29.9263 24.924 29.8888 24.9107C29.74 24.9582 29.581 24.9809 29.4165 24.9745C28.6344 24.9441 28.0244 24.2659 28.054 23.4598C28.067 23.105 28.2017 22.7846 28.4151 22.5395C28.4617 22.4497 28.5161 22.3666 28.5762 22.291C28.7009 22.1344 28.8373 22.0258 28.9527 21.9525C29.0673 21.8797 29.1735 21.8337 29.2552 21.8043C29.338 21.7745 29.4113 21.7562 29.4684 21.7446C29.5794 21.722 29.6716 21.7162 29.7288 21.7144C29.7897 21.7125 29.8413 21.7145 29.8791 21.7169C29.918 21.7194 29.9522 21.723 29.9798 21.7265C30.0342 21.7333 30.0813 21.7418 30.1172 21.7492C30.1889 21.7637 30.255 21.7813 30.3106 21.7978C30.4199 21.8303 30.5471 21.8761 30.6748 21.9357C30.7396 21.966 30.8188 22.0065 30.9028 22.0587C30.9223 22.0708 30.943 22.0842 30.9647 22.0989L31.0211 22.1186C31.9114 22.4288 32.6189 22.9259 33.116 23.5914C33.6082 24.2505 33.8284 24.9865 33.8939 25.6764C34.0203 27.0063 33.5894 28.3062 33.2069 29.124L33.2026 29.1332L33.1982 29.1424C32.6209 30.3348 31.622 32.207 30.4771 33.8163C29.907 34.6176 29.2639 35.4064 28.5819 36.0173C28.1371 36.4157 27.5721 36.8333 26.9168 37.068L26.2849 35.6122C26.303 35.6044 26.3135 35.6023 26.3135 35.6023C26.3135 35.6023 26.3127 35.6025 26.3111 35.6027C26.3023 35.6039 26.2822 35.6054 26.2521 35.6033C26.2378 35.6023 26.2234 35.6006 26.2097 35.5985C26.1959 35.5963 26.1846 35.5939 26.1766 35.592L26.1687 35.5899L26.1715 35.5908C26.1742 35.5917 26.1798 35.5936 26.1882 35.5968C26.1965 35.5999 26.2093 35.6049 26.2261 35.6122L25.5943 37.0679C24.939 36.8332 24.374 36.4157 23.9292 36.0173C23.2473 35.4064 22.6042 34.6176 22.0341 33.8163C20.8891 32.207 19.8903 30.3348 19.313 29.1424L19.3085 29.1332L19.3042 29.124C18.9218 28.3062 18.4908 27.0063 18.6172 25.6764C18.6828 24.9865 18.903 24.2505 19.3952 23.5914C19.8922 22.9259 20.5997 22.4288 21.49 22.1186C21.9293 21.9656 22.1535 21.88 22.2536 21.8411L22.3182 21.8158C22.3265 21.8125 22.3404 21.8071 22.355 21.8016L22.3559 21.8013C22.3635 21.7984 22.4076 21.7817 22.4607 21.7657L22.4625 21.7652C22.4795 21.76 22.5838 21.7281 22.7176 21.7123L22.7217 21.7118C22.7694 21.706 23.0115 21.6765 23.3027 21.7586C23.4691 21.8054 23.784 21.9255 24.0498 22.2382C24.2471 22.4704 24.3509 22.7294 24.391 22.9748C24.437 23.1098 24.4644 23.2541 24.47 23.4046C24.4995 24.2107 23.8895 24.8889 23.1075 24.9193C22.9746 24.9245 22.8454 24.9107 22.7222 24.8802L22.7048 24.9669C22.6597 24.9574 22.6116 24.946 22.5613 24.9323ZM29.705 22.0683L29.7062 22.0745L29.6896 22.0717C29.6973 22.0699 29.7024 22.0688 29.7047 22.0683L29.705 22.0683Z" fill="url(#paint1_linear)"/>
<path d="M22.5057 24.9517L22.6129 25.2595L22.6131 25.2594L22.5057 24.9517ZM22.5613 24.9323L22.647 24.6179L22.5494 24.5913L22.4539 24.6246L22.5613 24.9323ZM21.8072 25.4022L22.0683 25.5972L22.0683 25.5972L21.8072 25.4022ZM21.6047 25.9926L21.2803 25.9617L21.2803 25.9617L21.6047 25.9926ZM22.0164 27.8701L21.7208 28.0076L21.7231 28.0122L22.0164 27.8701ZM24.4734 32.0964L24.739 31.9075L24.739 31.9075L24.4734 32.0964ZM25.9186 33.7939L26.136 33.5512L26.136 33.5512L25.9186 33.7939ZM26.2556 34.065L26.0684 34.3318L26.2556 34.4631L26.4428 34.3318L26.2556 34.065ZM26.5926 33.7939L26.3751 33.5512L26.3751 33.5512L26.5926 33.7939ZM28.0377 32.0964L28.3033 32.2854L28.3033 32.2854L28.0377 32.0964ZM30.4948 27.8701L30.7881 28.0123L30.7903 28.0076L30.4948 27.8701ZM30.9064 25.9926L30.582 26.0234L30.582 26.0234L30.9064 25.9926ZM30.7039 25.4022L30.4428 25.5972L30.4428 25.5972L30.7039 25.4022ZM30.0055 24.9517L29.8983 25.2595L29.8983 25.2595L30.0055 24.9517ZM29.8888 24.9107L29.9977 24.6036L29.8943 24.5669L29.7898 24.6002L29.8888 24.9107ZM29.4165 24.9745L29.4291 24.6489L29.4291 24.6489L29.4165 24.9745ZM28.054 23.4598L28.3796 23.4717L28.3796 23.4717L28.054 23.4598ZM28.4151 22.5395L28.6608 22.7536L28.6865 22.7241L28.7045 22.6894L28.4151 22.5395ZM28.5762 22.291L28.8312 22.4939L28.8312 22.4939L28.5762 22.291ZM28.9527 21.9525L28.778 21.6774L28.778 21.6774L28.9527 21.9525ZM29.2552 21.8043L29.3656 22.1109L29.3656 22.1109L29.2552 21.8043ZM29.4684 21.7446L29.4035 21.4252L29.4035 21.4252L29.4684 21.7446ZM29.7288 21.7144L29.7187 21.3886L29.7187 21.3886L29.7288 21.7144ZM29.8791 21.7169L29.8583 22.0422L29.8583 22.0422L29.8791 21.7169ZM29.9798 21.7265L29.9393 22.0498L29.9393 22.0498L29.9798 21.7265ZM30.1172 21.7492L30.1822 21.4298L30.1822 21.4298L30.1172 21.7492ZM30.3106 21.7978L30.4034 21.4854L30.4034 21.4854L30.3106 21.7978ZM30.6748 21.9357L30.5369 22.231L30.5369 22.231L30.6748 21.9357ZM30.9028 22.0587L30.7306 22.3354L30.7306 22.3354L30.9028 22.0587ZM30.9647 22.0989L30.7821 22.3688L30.8172 22.3925L30.8571 22.4065L30.9647 22.0989ZM31.0211 22.1186L30.9135 22.4262L30.9139 22.4264L31.0211 22.1186ZM33.116 23.5914L32.8549 23.7865L32.8549 23.7865L33.116 23.5914ZM33.8939 25.6764L34.2184 25.6456L34.2184 25.6456L33.8939 25.6764ZM33.2069 29.124L33.5021 29.262L33.5021 29.262L33.2069 29.124ZM33.2026 29.1332L33.496 29.2752L33.4978 29.2713L33.2026 29.1332ZM33.1982 29.1424L32.9048 29.0003L32.9048 29.0003L33.1982 29.1424ZM30.4771 33.8163L30.7426 34.0052L30.7426 34.0052L30.4771 33.8163ZM28.5819 36.0173L28.3645 35.7745L28.3645 35.7745L28.5819 36.0173ZM26.9168 37.068L26.6178 37.1977L26.7394 37.4777L27.0267 37.3748L26.9168 37.068ZM26.2849 35.6122L26.1552 35.3132L25.8562 35.443L25.986 35.742L26.2849 35.6122ZM26.3135 35.6023L26.4943 35.3312L26.4503 35.3018L26.3993 35.2879L26.3135 35.6023ZM26.3111 35.6027L26.3558 35.9255L26.3558 35.9255L26.3111 35.6027ZM26.2521 35.6033L26.2291 35.9284L26.2291 35.9284L26.2521 35.6033ZM26.2097 35.5985L26.1588 35.9203L26.1588 35.9204L26.2097 35.5985ZM26.1766 35.592L26.0947 35.9075L26.1002 35.9088L26.1766 35.592ZM26.1687 35.5899L26.2505 35.2745L26.0698 35.9005L26.1687 35.5899ZM26.1715 35.5908L26.2728 35.2811L26.2703 35.2803L26.1715 35.5908ZM26.1882 35.5968L26.0735 35.9018L26.0735 35.9018L26.1882 35.5968ZM26.2261 35.6122L26.5251 35.742L26.6549 35.443L26.3559 35.3132L26.2261 35.6122ZM25.5943 37.0679L25.4844 37.3748L25.7717 37.4777L25.8932 37.1977L25.5943 37.0679ZM23.9292 36.0173L23.7118 36.26L23.7118 36.26L23.9292 36.0173ZM22.0341 33.8163L21.7685 34.0052L21.7685 34.0052L22.0341 33.8163ZM19.313 29.1424L19.6063 29.0003L19.6063 29.0003L19.313 29.1424ZM19.3085 29.1332L19.0133 29.2713L19.0152 29.2752L19.3085 29.1332ZM19.3042 29.124L19.009 29.262L19.009 29.262L19.3042 29.124ZM18.6172 25.6764L18.9416 25.7072L18.9416 25.7072L18.6172 25.6764ZM19.3952 23.5914L19.1341 23.3964L19.3952 23.5914ZM21.49 22.1186L21.5972 22.4264L21.5972 22.4264L21.49 22.1186ZM22.2536 21.8411L22.3718 22.1448L22.3724 22.1445L22.2536 21.8411ZM22.3182 21.8158L22.1996 21.5122L22.1994 21.5123L22.3182 21.8158ZM22.355 21.8016L22.4697 22.1067L22.4702 22.1065L22.355 21.8016ZM22.3559 21.8013L22.4711 22.1062L22.4712 22.1061L22.3559 21.8013ZM22.4607 21.7657L22.5546 22.0778L22.5557 22.0775L22.4607 21.7657ZM22.4625 21.7652L22.5574 22.077L22.5577 22.0769L22.4625 21.7652ZM22.7176 21.7123L22.7558 22.036L22.7567 22.0359L22.7176 21.7123ZM22.7217 21.7118L22.7608 22.0354L22.7611 22.0353L22.7217 21.7118ZM23.3027 21.7586L23.2144 22.0722L23.2144 22.0722L23.3027 21.7586ZM24.0498 22.2382L23.8014 22.4493L23.8014 22.4493L24.0498 22.2382ZM24.391 22.9748L24.0694 23.0274L24.0738 23.0542L24.0825 23.08L24.391 22.9748ZM24.47 23.4046L24.1443 23.4165L24.1443 23.4165L24.47 23.4046ZM23.1075 24.9193L23.1201 25.245L23.1201 25.245L23.1075 24.9193ZM22.7222 24.8802L22.8006 24.5638L22.4699 24.482L22.4028 24.8159L22.7222 24.8802ZM22.7048 24.9669L22.6373 25.2857L22.9593 25.3538L23.0243 25.0312L22.7048 24.9669ZM29.7062 22.0745L29.6526 22.396L30.1189 22.4737L30.0257 22.0102L29.7062 22.0745ZM29.705 22.0683L30.0244 22.004L29.9595 21.6814L29.6376 21.7494L29.705 22.0683ZM29.6896 22.0717L29.613 21.755L29.636 22.3932L29.6896 22.0717ZM29.7047 22.0683L29.6374 21.7494L29.6373 21.7494L29.7047 22.0683ZM22.6131 25.2594L22.6687 25.24L22.4539 24.6246L22.3983 24.644L22.6131 25.2594ZM22.0683 25.5972C22.1234 25.5235 22.2571 25.3834 22.6129 25.2595L22.3984 24.644C21.9364 24.8049 21.6889 25.016 21.5461 25.2072L22.0683 25.5972ZM21.9292 26.0234C21.9498 25.8061 22.0073 25.679 22.0683 25.5972L21.5461 25.2072C21.3997 25.4033 21.3099 25.6509 21.2803 25.9617L21.9292 26.0234ZM22.3118 27.7327C22.0556 27.1819 21.8823 26.517 21.9292 26.0234L21.2803 25.9617C21.2179 26.6183 21.4409 27.4058 21.7209 28.0076L22.3118 27.7327ZM24.739 31.9075C23.7479 30.5145 22.8445 28.8318 22.3096 27.728L21.7231 28.0122C22.2663 29.1332 23.1876 30.8514 24.2079 32.2854L24.739 31.9075ZM26.136 33.5512C25.7164 33.1753 25.2388 32.6101 24.739 31.9075L24.2079 32.2854C24.7213 33.007 25.2309 33.6154 25.7011 34.0367L26.136 33.5512ZM26.4428 33.7982C26.3606 33.7406 26.2585 33.6609 26.136 33.5512L25.7011 34.0367C25.8407 34.1617 25.963 34.2578 26.0684 34.3318L26.4428 33.7982ZM26.3751 33.5512C26.2527 33.6609 26.1505 33.7406 26.0684 33.7982L26.4428 34.3318C26.5481 34.2578 26.6704 34.1617 26.81 34.0367L26.3751 33.5512ZM27.7722 31.9075C27.2723 32.6102 26.7947 33.1753 26.3751 33.5512L26.81 34.0367C27.2803 33.6154 27.7899 33.007 28.3033 32.2854L27.7722 31.9075ZM30.2015 27.728C29.6667 28.8318 28.7633 30.5145 27.7722 31.9075L28.3033 32.2854C29.3235 30.8514 30.2449 29.1332 30.7881 28.0122L30.2015 27.728ZM30.582 26.0234C30.6289 26.517 30.4555 27.1819 30.1993 27.7327L30.7903 28.0076C31.0702 27.4058 31.2932 26.6183 31.2308 25.9617L30.582 26.0234ZM30.4428 25.5972C30.5039 25.679 30.5613 25.8061 30.582 26.0234L31.2308 25.9617C31.2013 25.6509 31.1115 25.4033 30.965 25.2072L30.4428 25.5972ZM29.8983 25.2595C30.2541 25.3834 30.3877 25.5235 30.4428 25.5972L30.965 25.2072C30.8223 25.016 30.5747 24.8049 30.1127 24.644L29.8983 25.2595ZM29.7799 25.2179C29.818 25.2314 29.8574 25.2452 29.8983 25.2595L30.1127 24.644C30.0729 24.6301 30.0346 24.6167 29.9977 24.6036L29.7799 25.2179ZM29.4038 25.3002C29.6067 25.3081 29.8035 25.28 29.9878 25.2212L29.7898 24.6002C29.6764 24.6364 29.5552 24.6538 29.4291 24.6489L29.4038 25.3002ZM27.7283 23.4478C27.6925 24.4242 28.433 25.2624 29.4038 25.3002L29.4291 24.6489C28.8359 24.6258 28.3563 24.1076 28.3796 23.4717L27.7283 23.4478ZM28.1694 22.3255C27.908 22.6255 27.7441 23.0169 27.7283 23.4478L28.3796 23.4717C28.3898 23.1931 28.4953 22.9436 28.6608 22.7536L28.1694 22.3255ZM28.3213 22.088C28.2482 22.1798 28.1822 22.2806 28.1257 22.3897L28.7045 22.6894C28.7411 22.6188 28.7839 22.5534 28.8312 22.4939L28.3213 22.088ZM28.778 21.6774C28.638 21.7664 28.4725 21.898 28.3213 22.088L28.8312 22.4939C28.9293 22.3707 29.0366 22.2853 29.1275 22.2276L28.778 21.6774ZM29.1449 21.4976C29.0457 21.5333 28.917 21.5891 28.778 21.6774L29.1275 22.2276C29.2177 22.1703 29.3012 22.1341 29.3656 22.1109L29.1449 21.4976ZM29.4035 21.4252C29.3341 21.4393 29.2453 21.4615 29.1449 21.4976L29.3656 22.1109C29.4307 22.0875 29.4884 22.0731 29.5334 22.0639L29.4035 21.4252ZM29.7187 21.3886C29.6496 21.3908 29.538 21.3979 29.4035 21.4252L29.5334 22.0639C29.6208 22.0462 29.6936 22.0415 29.7388 22.0401L29.7187 21.3886ZM29.8999 21.3917C29.8546 21.3888 29.7923 21.3864 29.7187 21.3886L29.7388 22.0401C29.7871 22.0386 29.8281 22.0402 29.8583 22.0422L29.8999 21.3917ZM30.0204 21.4031C29.9874 21.399 29.9466 21.3947 29.8999 21.3917L29.8583 22.0422C29.8894 22.0441 29.9169 22.047 29.9393 22.0498L30.0204 21.4031ZM30.1822 21.4298C30.1405 21.4213 30.0849 21.4112 30.0204 21.4031L29.9393 22.0498C29.9835 22.0554 30.0222 22.0624 30.0523 22.0685L30.1822 21.4298ZM30.4034 21.4854C30.341 21.4669 30.2654 21.4467 30.1822 21.4298L30.0523 22.0685C30.1124 22.0807 30.169 22.0957 30.2178 22.1102L30.4034 21.4854ZM30.8127 21.6404C30.6685 21.5731 30.5259 21.5218 30.4034 21.4854L30.2178 22.1102C30.3139 22.1388 30.4258 22.1791 30.5369 22.231L30.8127 21.6404ZM31.0749 21.782C30.9773 21.7213 30.8861 21.6747 30.8127 21.6404L30.5369 22.231C30.5931 22.2573 30.6604 22.2917 30.7306 22.3354L31.0749 21.782ZM31.1474 21.829C31.1219 21.8117 31.0976 21.7961 31.0749 21.782L30.7306 22.3354C30.7469 22.3456 30.7642 22.3567 30.7821 22.3688L31.1474 21.829ZM31.1288 21.811L31.0724 21.7913L30.8571 22.4065L30.9135 22.4262L31.1288 21.811ZM33.3771 23.3964C32.836 22.6719 32.0713 22.1394 31.1283 21.8109L30.9139 22.4264C31.7515 22.7182 32.4019 23.1799 32.8549 23.7865L33.3771 23.3964ZM34.2184 25.6456C34.1484 24.9094 33.9122 24.113 33.3771 23.3964L32.8549 23.7865C33.3041 24.388 33.5084 25.0636 33.5695 25.7072L34.2184 25.6456ZM33.5021 29.262C33.8965 28.4187 34.3525 27.0573 34.2184 25.6456L33.5695 25.7072C33.6881 26.9554 33.2822 28.1937 32.9117 28.9859L33.5021 29.262ZM33.4978 29.2713L33.5021 29.262L32.9117 28.9859L32.9074 28.9951L33.4978 29.2713ZM33.4915 29.2844L33.4959 29.2752L32.9093 28.9912L32.9048 29.0003L33.4915 29.2844ZM30.7426 34.0052C31.9021 32.3754 32.91 30.4854 33.4915 29.2844L32.9048 29.0003C32.3317 30.1841 31.3419 32.0386 30.2115 33.6274L30.7426 34.0052ZM28.7994 36.26C29.5066 35.6264 30.1657 34.8161 30.7426 34.0052L30.2115 33.6274C29.6483 34.4191 29.0211 35.1863 28.3645 35.7745L28.7994 36.26ZM27.0267 37.3748C27.7383 37.1199 28.3397 36.6718 28.7994 36.26L28.3645 35.7745C27.9345 36.1597 27.406 36.5466 26.8069 36.7612L27.0267 37.3748ZM25.986 35.742L26.6178 37.1977L27.2157 36.9382L26.5839 35.4824L25.986 35.742ZM26.3993 35.2879C26.351 35.2786 26.2917 35.2772 26.2816 35.278C26.2773 35.2785 26.2705 35.2793 26.2681 35.2796C26.2641 35.2802 26.2609 35.2807 26.2601 35.2809C26.2577 35.2812 26.2559 35.2816 26.2554 35.2817C26.2539 35.2819 26.2527 35.2822 26.2522 35.2823C26.2509 35.2825 26.2498 35.2827 26.2489 35.2829C26.2472 35.2833 26.2455 35.2836 26.244 35.2839C26.2408 35.2846 26.2374 35.2854 26.234 35.2862C26.2271 35.2879 26.2196 35.29 26.2114 35.2925C26.195 35.2974 26.1761 35.3042 26.1552 35.3132L26.4147 35.9111C26.4118 35.9124 26.4072 35.9142 26.4006 35.9162C26.3973 35.9172 26.3935 35.9182 26.3892 35.9193C26.387 35.9198 26.3847 35.9204 26.3821 35.9209C26.3809 35.9212 26.3794 35.9215 26.3779 35.9218C26.3771 35.922 26.3761 35.9222 26.3748 35.9224C26.3743 35.9225 26.3731 35.9227 26.3717 35.923C26.3711 35.9231 26.3693 35.9234 26.367 35.9238C26.3661 35.924 26.363 35.9245 26.3589 35.9251C26.3565 35.9254 26.3498 35.9262 26.3455 35.9267C26.3353 35.9275 26.276 35.9261 26.2278 35.9167L26.3993 35.2879ZM26.3558 35.9255C26.3595 35.925 26.363 35.9245 26.3665 35.9239C26.3682 35.9236 26.3701 35.9233 26.3721 35.9229C26.373 35.9228 26.3745 35.9225 26.3763 35.9221C26.3769 35.922 26.3788 35.9216 26.3812 35.9211C26.382 35.921 26.3854 35.9202 26.3898 35.9192C26.3909 35.9189 26.3982 35.9172 26.4072 35.9145C26.4087 35.914 26.4255 35.9092 26.4456 35.9003C26.447 35.8997 26.4902 35.8821 26.5326 35.8436C26.561 35.8143 26.62 35.7132 26.6374 35.6385C26.6323 35.5347 26.5506 35.3788 26.4943 35.3312L26.1328 35.8735C26.0764 35.8259 25.9947 35.67 25.9896 35.5662C26.0071 35.4915 26.066 35.3903 26.0945 35.361C26.1368 35.3226 26.1801 35.305 26.1815 35.3044C26.2015 35.2955 26.2183 35.2907 26.2198 35.2902C26.2289 35.2875 26.2362 35.2858 26.2372 35.2855C26.2416 35.2844 26.2451 35.2837 26.2458 35.2836C26.2482 35.283 26.2501 35.2827 26.2507 35.2825C26.2524 35.2822 26.2538 35.282 26.2547 35.2818C26.2565 35.2815 26.2581 35.2812 26.2594 35.281C26.262 35.2805 26.2643 35.2802 26.2663 35.2799L26.3558 35.9255ZM26.2291 35.9284C26.2787 35.9319 26.3217 35.9303 26.3558 35.9255L26.2663 35.2799C26.2715 35.2792 26.2751 35.2789 26.2771 35.2787C26.2793 35.2785 26.2805 35.2785 26.2809 35.2785C26.2817 35.2785 26.2797 35.2786 26.2751 35.2782L26.2291 35.9284ZM26.1588 35.9204C26.1813 35.9239 26.205 35.9267 26.2291 35.9284L26.2751 35.2782C26.2706 35.2779 26.2656 35.2773 26.2606 35.2766L26.1588 35.9204ZM26.1002 35.9088C26.1164 35.9127 26.1362 35.9168 26.1588 35.9203L26.2606 35.2766C26.2556 35.2758 26.2527 35.2751 26.253 35.2751L26.1002 35.9088ZM26.0869 35.9054L26.0947 35.9074L26.2584 35.2765L26.2505 35.2745L26.0869 35.9054ZM26.2703 35.2803L26.2676 35.2794L26.0698 35.9005L26.0726 35.9013L26.2703 35.2803ZM26.303 35.2917C26.2899 35.2868 26.2798 35.2834 26.2728 35.2811L26.0701 35.9005C26.0686 35.9 26.0697 35.9004 26.0735 35.9018L26.303 35.2917ZM26.3559 35.3132C26.3336 35.3036 26.3158 35.2965 26.3029 35.2917L26.0735 35.9018C26.0772 35.9032 26.0849 35.9062 26.0964 35.9111L26.3559 35.3132ZM25.8932 37.1977L26.5251 35.742L25.9272 35.4824L25.2953 36.9382L25.8932 37.1977ZM23.7118 36.26C24.1714 36.6717 24.7728 37.1199 25.4844 37.3748L25.7042 36.7611C25.1051 36.5466 24.5767 36.1597 24.1467 35.7745L23.7118 36.26ZM21.7685 34.0052C22.3454 34.8161 23.0045 35.6264 23.7118 36.26L24.1467 35.7745C23.49 35.1863 22.8629 34.4191 22.2996 33.6274L21.7685 34.0052ZM19.0197 29.2844C19.6011 30.4854 20.609 32.3754 21.7685 34.0052L22.2996 33.6274C21.1693 32.0386 20.1794 30.1841 19.6063 29.0003L19.0197 29.2844ZM19.0152 29.2752L19.0197 29.2844L19.6063 29.0003L19.6019 28.9912L19.0152 29.2752ZM19.009 29.262L19.0133 29.2712L19.6038 28.9951L19.5994 28.9859L19.009 29.262ZM18.2928 25.6456C18.1586 27.0573 18.6146 28.4187 19.009 29.262L19.5994 28.9859C19.2289 28.1937 18.823 26.9554 18.9416 25.7072L18.2928 25.6456ZM19.1341 23.3964C18.5989 24.113 18.3627 24.9094 18.2928 25.6456L18.9416 25.7072C19.0028 25.0636 19.207 24.388 19.6563 23.7864L19.1341 23.3964ZM21.3828 21.8109C20.4398 22.1394 19.6752 22.6719 19.1341 23.3964L19.6563 23.7864C20.1093 23.1799 20.7597 22.7182 21.5972 22.4264L21.3828 21.8109ZM22.1354 21.5373C22.0393 21.5747 21.8187 21.659 21.3828 21.8109L21.5972 22.4264C22.0398 22.2722 22.2677 22.1853 22.3718 22.1448L22.1354 21.5373ZM22.1994 21.5123L22.1348 21.5376L22.3724 22.1445L22.437 22.1192L22.1994 21.5123ZM22.2403 21.4966C22.2236 21.5028 22.208 21.5089 22.1996 21.5122L22.4369 22.1193C22.445 22.1161 22.4573 22.1113 22.4697 22.1067L22.2403 21.4966ZM22.2407 21.4964L22.2398 21.4968L22.4702 22.1065L22.4711 22.1062L22.2407 21.4964ZM22.3669 21.4536C22.3029 21.4729 22.2504 21.4928 22.2405 21.4965L22.4712 22.1061C22.4767 22.104 22.5124 22.0905 22.5546 22.0778L22.3669 21.4536ZM22.3675 21.4534L22.3658 21.454L22.5557 22.0775L22.5574 22.077L22.3675 21.4534ZM22.6794 21.3887C22.517 21.4078 22.3912 21.4462 22.3672 21.4535L22.5577 22.0769C22.5677 22.0738 22.6505 22.0484 22.7558 22.036L22.6794 21.3887ZM22.6826 21.3883L22.6785 21.3888L22.7567 22.0359L22.7608 22.0354L22.6826 21.3883ZM23.3911 21.4449C23.0378 21.3454 22.7449 21.3807 22.6823 21.3883L22.7611 22.0353C22.7939 22.0313 22.9851 22.0076 23.2144 22.0722L23.3911 21.4449ZM24.2981 22.0272C23.9753 21.6474 23.5929 21.5017 23.3911 21.4449L23.2144 22.0722C23.3453 22.1091 23.5926 22.2036 23.8014 22.4493L24.2981 22.0272ZM24.7126 22.9222C24.6639 22.6242 24.5374 22.3088 24.2981 22.0272L23.8014 22.4493C23.9567 22.6319 24.0379 22.8347 24.0694 23.0274L24.7126 22.9222ZM24.7956 23.3926C24.7889 23.2101 24.7557 23.0344 24.6995 22.8696L24.0825 23.08C24.1184 23.1851 24.1399 23.298 24.1443 23.4165L24.7956 23.3926ZM23.1201 25.245C24.0909 25.2072 24.8314 24.369 24.7956 23.3926L24.1443 23.4165C24.1676 24.0524 23.6881 24.5706 23.0948 24.5937L23.1201 25.245ZM22.6439 25.1965C22.7965 25.2343 22.9564 25.2514 23.1201 25.245L23.0948 24.5937C22.9929 24.5976 22.8943 24.587 22.8006 24.5638L22.6439 25.1965ZM23.0243 25.0312L23.0417 24.9445L22.4028 24.8159L22.3853 24.9026L23.0243 25.0312ZM22.4756 25.2467C22.5328 25.2623 22.5871 25.2751 22.6373 25.2857L22.7722 24.6481C22.7324 24.6396 22.6904 24.6297 22.647 24.6179L22.4756 25.2467ZM30.0257 22.0102L30.0244 22.004L29.3855 22.1325L29.3867 22.1388L30.0257 22.0102ZM29.636 22.3932L29.6526 22.396L29.7598 21.7531L29.7431 21.7503L29.636 22.3932ZM29.6373 21.7494C29.6336 21.7502 29.625 21.7521 29.613 21.755L29.7662 22.3885C29.7695 22.3877 29.7713 22.3873 29.7721 22.3871L29.6373 21.7494ZM29.6376 21.7494L29.6374 21.7494L29.7721 22.3872L29.7723 22.3871L29.6376 21.7494Z" fill="url(#paint2_linear)" mask="url(#path-2-inside-1)"/>
<path d="M25.4033 35.2361C25.6875 35.4369 26.4263 35.718 27.1083 35.2361" stroke="black" stroke-width="1.30358"/>
<path d="M26.291 35.6372V38.8795C26.291 40.7128 28.4017 42.7254 31.0987 42.7254C33.7958 42.7254 38.7079 42.7254 42.4538 42.7254C44.9497 42.7254 49.3763 40.3015 50.2753 36.7165C51.399 32.2353 50.1753 29.0079 48.0494 26.8087C45.9235 24.6094 44.082 25.2682 42.4538 25.2682C43.9897 20.3375 41.2375 12.9363 34.6941 11.0738C25.8893 8.56751 19.2854 14.0659 19.2854 18.5561C17.1627 16.621 13.8476 16.0283 11.0188 18.5561C8.50182 20.8053 8.50182 23.7277 8.50182 25.2682C3.55725 25.2682 2.44531 30.3694 2.44531 33.0033C2.44531 35.6372 3.59453 38.31 6.58497 40.4029C8.32862 41.6232 10.047 42.7254 13.1186 42.7254C16.1902 42.7254 20.4274 42.7254 20.7083 42.7254" stroke="url(#paint3_linear)" stroke-width="3" stroke-linecap="round" stroke-linejoin="round"/>
<ellipse rx="1.41707" ry="1.46061" transform="matrix(0.999243 -0.0389072 0.0366285 0.999329 21.8552 42.6711)" fill="#C4C4C4"/>
<defs>
<linearGradient id="paint0_linear" x1="53" y1="0.000477697" x2="198.651" y2="38.0844" gradientUnits="userSpaceOnUse">
<stop stop-color="#B4ADF9"/>
<stop offset="1" stop-color="#9BC4F8"/>
</linearGradient>
<linearGradient id="paint1_linear" x1="18.5947" y1="21.702" x2="35.4532" y2="23.63" gradientUnits="userSpaceOnUse">
<stop stop-color="#B4ADF9"/>
<stop offset="1" stop-color="#9BC4F8"/>
</linearGradient>
<linearGradient id="paint2_linear" x1="18.5947" y1="21.702" x2="35.4532" y2="23.63" gradientUnits="userSpaceOnUse">
<stop stop-color="#B4ADF9"/>
<stop offset="1" stop-color="#9BC4F8"/>
</linearGradient>
<linearGradient id="paint3_linear" x1="2.44531" y1="10.4453" x2="54.6997" y2="19.4047" gradientUnits="userSpaceOnUse">
<stop stop-color="#B4ADF9"/>
<stop offset="1" stop-color="#9BC4F8"/>
</linearGradient>
</defs>
</svg>
