<svg width="811" height="226" viewBox="0 0 811 226" fill="none" xmlns="http://www.w3.org/2000/svg">
<g clip-path="url(#clip0)">
<g filter="url(#filter0_f)">
<path d="M785.387 227.511C785.387 227.511 486.106 235.735 467.879 227.511C449.652 219.287 457.298 191.7 480.733 179.993C504.168 168.286 491.803 139.696 518.71 130.558C536.099 124.652 540.243 114.263 540.998 109.587C540.874 109.487 540.811 109.205 540.811 108.716C540.811 106.18 541.412 107.028 540.998 109.587C542.695 110.958 555.693 78.3735 571.869 75.819C589.228 73.0775 592.514 75.8192 603.797 75.8192C615.081 75.8192 616.135 57.5428 638.702 59.3704C661.269 61.198 688.176 108.716 688.176 108.716C688.176 108.716 717.69 139.785 737.677 139.785C757.664 139.785 803.493 172.421 810.437 193.438C817.38 214.456 785.387 227.511 785.387 227.511Z" fill="url(#paint0_linear)"/>
</g>
<g filter="url(#filter1_f)">
<path d="M178.987 170.717C178.987 170.717 599.517 179.061 625.129 170.717C650.74 162.374 639.997 134.385 607.068 122.508C574.139 110.631 591.512 81.6245 553.704 72.3535C529.271 66.3619 523.448 55.8216 522.386 51.0776C522.561 50.9759 522.65 50.6898 522.65 50.194C522.65 47.621 521.805 48.481 522.386 51.0776C520.002 52.4681 501.739 19.4099 479.01 16.8182C454.617 14.0369 450.001 16.8185 434.146 16.8185C418.291 16.8185 416.81 -1.72387 385.1 0.130339C353.39 1.98455 315.583 50.194 315.583 50.194C315.583 50.194 274.112 81.7155 246.027 81.7155C217.943 81.7155 153.547 114.826 143.79 136.149C134.033 157.472 178.987 170.717 178.987 170.717Z" fill="url(#paint1_linear)"/>
</g>
<g filter="url(#filter2_f)">
<path d="M150.633 243.028C150.633 243.028 -148.649 251.252 -166.876 243.028C-185.103 234.804 -177.457 207.217 -154.022 195.51C-130.587 183.803 -142.952 155.213 -116.045 146.075C-98.6559 140.169 -94.5123 129.78 -93.7566 125.104C-93.8807 125.004 -93.9444 124.722 -93.9444 124.233C-93.9444 121.697 -93.343 122.545 -93.7566 125.104C-92.0597 126.475 -79.0622 93.8908 -62.8863 91.3363C-45.527 88.5949 -42.2414 91.3366 -30.9579 91.3366C-19.6744 91.3366 -18.6201 73.0601 3.94688 74.8877C26.5139 76.7154 53.4208 124.233 53.4208 124.233C53.4208 124.233 82.9346 155.303 102.922 155.303C122.909 155.303 168.738 187.938 175.682 208.955C182.625 229.973 150.633 243.028 150.633 243.028Z" fill="url(#paint2_linear)"/>
</g>
</g>
<defs>
<filter id="filter0_f" x="455.399" y="56.8862" width="358.38" height="176.636" filterUnits="userSpaceOnUse" color-interpolation-filters="sRGB">
<feFlood flood-opacity="0" result="BackgroundImageFix"/>
<feBlend mode="normal" in="SourceGraphic" in2="BackgroundImageFix" result="shape"/>
<feGaussianBlur stdDeviation="1.17788" result="effect1_foregroundBlur"/>
</filter>
<filter id="filter1_f" x="140.049" y="-2.35576" width="501.662" height="179.137" filterUnits="userSpaceOnUse" color-interpolation-filters="sRGB">
<feFlood flood-opacity="0" result="BackgroundImageFix"/>
<feBlend mode="normal" in="SourceGraphic" in2="BackgroundImageFix" result="shape"/>
<feGaussianBlur stdDeviation="1.17788" result="effect1_foregroundBlur"/>
</filter>
<filter id="filter2_f" x="-179.356" y="72.4035" width="358.379" height="176.636" filterUnits="userSpaceOnUse" color-interpolation-filters="sRGB">
<feFlood flood-opacity="0" result="BackgroundImageFix"/>
<feBlend mode="normal" in="SourceGraphic" in2="BackgroundImageFix" result="shape"/>
<feGaussianBlur stdDeviation="1.17788" result="effect1_foregroundBlur"/>
</filter>
<linearGradient id="paint0_linear" x1="604.902" y1="-9.87544" x2="573.155" y2="368.939" gradientUnits="userSpaceOnUse">
<stop stop-color="#ADBAF9"/>
<stop offset="0.0001" stop-color="#9BC4F8"/>
<stop offset="0.677083" stop-color="white" stop-opacity="0"/>
</linearGradient>
<linearGradient id="paint1_linear" x1="432.593" y1="-70.1231" x2="455.927" y2="315.491" gradientUnits="userSpaceOnUse">
<stop stop-color="#ADBAF9"/>
<stop offset="0.0001" stop-color="#9BC4F8"/>
<stop offset="0.0002" stop-color="#9DC5F8" stop-opacity="0.977067"/>
<stop offset="0.0003" stop-color="#9EC6F8" stop-opacity="0.969838"/>
<stop offset="0.677083" stop-color="white" stop-opacity="0"/>
</linearGradient>
<linearGradient id="paint2_linear" x1="-29.853" y1="5.64192" x2="-61.6002" y2="384.456" gradientUnits="userSpaceOnUse">
<stop stop-color="#ADBAF9"/>
<stop offset="0.0001" stop-color="#9BC4F8"/>
<stop offset="0.677083" stop-color="white" stop-opacity="0"/>
</linearGradient>
<clipPath id="clip0">
<rect width="865" height="226" fill="white" transform="matrix(-1 0 0 1 811 0)"/>
</clipPath>
</defs>
</svg>
