<svg width="82" height="56" viewBox="0 0 82 56" fill="none" xmlns="http://www.w3.org/2000/svg">
<path fill-rule="evenodd" clip-rule="evenodd" d="M34.7785 3.09882C39.7128 0.189068 46.4934 -1.07407 54.0858 1.0871C60.0328 2.77992 64.2072 6.9837 66.5359 11.7677C68.308 15.4084 69.0713 19.5055 68.6852 23.2828C69.1291 23.2818 69.6031 23.3014 70.0961 23.3598C72.1311 23.6011 74.2162 24.471 76.2833 26.6094C80.2423 30.705 82.3926 36.6778 80.4151 44.5635C79.5102 48.1718 76.906 50.9899 74.1954 52.8562C71.5092 54.7056 68.2966 55.9112 65.6811 55.9112H47.7337C44.9934 55.9112 42.5404 54.8907 40.7556 53.3794C39.0126 51.9035 37.6897 49.7542 37.6897 47.3876V43.9407C37.1901 43.6257 36.7419 43.2667 36.3532 42.9185C35.2695 41.9477 34.2493 40.6961 33.3467 39.4274C31.5338 36.8791 29.9529 33.9159 29.0395 32.0292L29.0323 32.0142L29.0253 31.9992C28.418 30.7008 27.7312 28.6324 27.9327 26.5119C28.0373 25.411 28.389 24.2343 29.1764 23.18C29.9718 22.115 31.1027 21.3214 32.5216 20.8271C33.1892 20.5945 33.5626 20.438 33.7622 20.3464C33.8954 20.2853 33.9297 20.266 33.9869 20.2338L33.9869 20.2337L33.987 20.2337L33.987 20.2337L33.9871 20.2336L33.9872 20.2336C34.0202 20.215 34.0609 20.192 34.1326 20.1543L34.1414 20.1496C34.2368 20.099 34.6394 19.8855 35.1924 19.8494C35.7069 19.8159 36.1236 19.9558 36.183 19.9757L36.189 19.9777C36.2107 19.9846 36.2289 19.9906 36.2455 19.996C36.3105 20.0175 36.3517 20.0311 36.4857 20.0594L36.3371 20.7978C36.8062 21.2024 37.1137 21.8022 37.1386 22.4819C37.1751 23.4774 36.5945 24.3494 35.7492 24.7062C36.1619 24.645 36.4378 24.4896 36.4481 24.4838L36.4484 24.4837C36.4947 24.4593 36.2062 24.6249 35.8424 24.7917C35.4679 24.9635 34.9457 25.1756 34.1766 25.4435C33.5421 25.6646 33.2535 25.9342 33.1068 26.1306C32.9523 26.3375 32.8395 26.6202 32.8009 27.0271C32.7162 27.9177 33.0238 29.0513 33.4446 29.9561C34.2957 31.7123 35.7356 34.3956 37.3216 36.6249C38.1208 37.7483 38.8973 38.6708 39.5948 39.2956C39.7812 39.4626 39.9426 39.5909 40.0794 39.6893C40.2161 39.5909 40.3775 39.4626 40.564 39.2956C41.2614 38.6708 42.0379 37.7483 42.8372 36.6249C44.4232 34.3956 45.8631 31.7123 46.7141 29.9561C47.135 29.0513 47.4425 27.9177 47.3579 27.0271C47.3192 26.6202 47.2064 26.3375 47.0519 26.1306C46.9053 25.9342 46.6167 25.6646 45.9822 25.4435C45.2131 25.1756 44.6908 24.9635 44.3164 24.7917C43.9526 24.6249 43.6641 24.4593 43.7104 24.4837L43.7107 24.4838C43.7209 24.4896 43.9958 24.6444 44.4072 24.7058C43.5624 24.3489 42.9822 23.4771 43.0186 22.4819C43.0436 21.8016 43.3516 21.2012 43.8215 20.7967L43.6731 20.0594C43.8071 20.0311 43.8483 20.0175 43.9133 19.996C43.9299 19.9906 43.9481 19.9846 43.9698 19.9777L43.9758 19.9757C44.0351 19.9558 44.4519 19.8159 44.9664 19.8494C45.5194 19.8855 45.9219 20.099 46.0174 20.1496L46.0261 20.1543C46.098 20.1921 46.1387 20.215 46.1718 20.2337L46.1718 20.2337L46.1718 20.2337C46.2291 20.266 46.2633 20.2853 46.3966 20.3464C46.5962 20.438 46.9696 20.5945 47.6371 20.8271C49.056 21.3214 50.187 22.115 50.9823 23.18C51.7698 24.2343 52.1214 25.411 52.226 26.5119C52.4275 28.6324 51.7407 30.7008 51.1335 31.9992L51.1265 32.0142L51.1192 32.0292C50.2059 33.9159 48.625 36.8791 46.8121 39.4274C45.9094 40.6961 44.8893 41.9477 43.8056 42.9185C43.4458 43.2408 43.035 43.5723 42.5797 43.8697V47.3876C42.5797 47.9185 42.9249 48.8086 43.9157 49.6476C44.8646 50.4512 46.2111 51.0212 47.7337 51.0212H65.6811C67.0106 51.0212 69.2687 50.3113 71.4223 48.8285C73.5514 47.3626 75.1559 45.4321 75.672 43.374C77.2468 37.094 75.5288 32.8647 72.7674 30.0081C71.4744 28.6704 70.4241 28.3229 69.5204 28.2158C69.0076 28.155 68.4725 28.1652 67.83 28.2057C67.6934 28.2143 67.5418 28.2253 67.3799 28.237C66.8658 28.2742 66.2483 28.3189 65.6811 28.3189C64.9037 28.3189 64.1726 27.9492 63.7118 27.3231C63.2511 26.6969 63.1155 25.889 63.3467 25.1468C64.3491 21.9288 63.9846 17.6993 62.1391 13.9079C60.3141 10.1585 57.1422 7.04136 52.747 5.79027C46.4228 3.9901 41.0261 5.09154 37.2624 7.311C33.3812 9.59968 31.5069 12.8618 31.5069 15.265C31.5069 16.2334 30.9354 17.1105 30.0495 17.5017C29.1636 17.8928 28.1304 17.7243 27.4147 17.0719C26.1027 15.8758 24.4773 15.1463 22.8225 15.0616C21.2111 14.9792 19.4059 15.4969 17.6251 17.0881C14.523 19.8602 14.4627 23.4391 14.4627 25.8739C14.4627 27.2243 13.3681 28.3189 12.0177 28.3189C9.16082 28.3189 7.50638 29.6999 6.43533 31.6178C5.28862 33.6712 4.89 36.2751 4.89 38.0997C4.89 41.4523 6.3067 44.9345 10.3899 47.7922C13.0157 49.6298 15.2202 51.0212 19.3149 51.0212H31.311C31.6646 51.0212 32.0008 51.0963 32.3043 51.2315C32.5328 51.1389 32.78 51.0838 33.0392 51.0737C34.2752 51.0256 35.3151 52.0195 35.3618 53.2936C35.4085 54.5678 34.4443 55.6397 33.2083 55.6878C32.9642 55.6973 32.7277 55.6662 32.5051 55.6003C32.152 55.7983 31.7446 55.9112 31.311 55.9112H19.3149C13.6998 55.9112 10.4722 53.8183 7.58608 51.7985C2.21612 48.0403 0 43.0733 0 38.0997C0 35.7614 0.480132 32.2523 2.16597 29.2336C3.6259 26.6193 6.02717 24.3512 9.62938 23.6512C9.82194 20.8224 10.6668 16.7482 14.3668 13.4418C17.0571 11.0378 20.1073 10.0263 23.0724 10.178C24.6041 10.2564 26.0671 10.6422 27.4069 11.2599C28.669 8.04792 31.351 5.11995 34.7785 3.09882Z" fill="url(#paint0_linear)"/>
<defs>
<linearGradient id="paint0_linear" x1="-1.55647e-06" y1="0.000436172" x2="88.0299" y2="14.6567" gradientUnits="userSpaceOnUse">
<stop stop-color="#B4ADF9"/>
<stop offset="1" stop-color="#9BC4F8"/>
</linearGradient>
</defs>
</svg>
