<svg width="271" height="156" viewBox="0 0 271 156" fill="none" xmlns="http://www.w3.org/2000/svg">
<rect x="0.000976562" y="0.00012207" width="258" height="138" rx="18" fill="white"/>
<path d="M145.772 134.122C149.644 135.568 160.705 133.454 188.219 122.16C222.612 108.043 206.252 82.5911 218.622 68.558C228.518 57.3315 236.623 56.2183 244.43 57.1543C251.431 61.278 257.931 51.8482 246.43 69.0557C241.947 74.8706 251.057 93.2793 239.365 83.003C273.47 101.639 227.399 105.538 195.768 68.9206" stroke="url(#paint0_radial)" stroke-width="20"/>
<g filter="url(#filter0_f)">
<path d="M197.275 55.4872C201.546 60.1596 200.968 67.2658 195.984 71.3594C191 75.4531 183.497 74.984 179.225 70.3117C174.954 65.6393 175.532 58.5331 180.516 54.4395C185.5 50.3458 193.003 50.8149 197.275 55.4872Z" fill="url(#paint1_linear)"/>
<path d="M197.275 55.4872C201.546 60.1596 200.968 67.2658 195.984 71.3594C191 75.4531 183.497 74.984 179.225 70.3117C174.954 65.6393 175.532 58.5331 180.516 54.4395C185.5 50.3458 193.003 50.8149 197.275 55.4872Z" fill="white"/>
</g>
<path d="M177.911 68.3955C173.672 66.808 171.605 62.2233 173.293 58.1555C174.981 54.0876 179.786 52.0769 184.024 53.6644C188.262 55.252 190.33 59.8366 188.642 63.9045C186.953 67.9724 182.149 69.9831 177.911 68.3955Z" fill="url(#paint2_radial)"/>
<defs>
<filter id="filter0_f" x="165.364" y="40.6516" width="45.7711" height="44.4958" filterUnits="userSpaceOnUse" color-interpolation-filters="sRGB">
<feFlood flood-opacity="0" result="BackgroundImageFix"/>
<feBlend mode="normal" in="SourceGraphic" in2="BackgroundImageFix" result="shape"/>
<feGaussianBlur stdDeviation="5.5" result="effect1_foregroundBlur"/>
</filter>
<radialGradient id="paint0_radial" cx="0" cy="0" r="1" gradientUnits="userSpaceOnUse" gradientTransform="translate(195.674 96.4053) rotate(-48.4236) scale(81.7458 299.619)">
<stop stop-color="#D5F5DC"/>
<stop offset="1" stop-color="white" stop-opacity="0"/>
</radialGradient>
<linearGradient id="paint1_linear" x1="180.516" y1="54.4395" x2="195.046" y2="72.1301" gradientUnits="userSpaceOnUse">
<stop stop-color="white"/>
<stop offset="1" stop-color="white" stop-opacity="0"/>
</linearGradient>
<radialGradient id="paint2_radial" cx="0" cy="0" r="1" gradientUnits="userSpaceOnUse" gradientTransform="translate(186.076 64.2059) rotate(-156.776) scale(16.7951 14.8546)">
<stop offset="0.339955" stop-color="#FFE1D0"/>
<stop offset="0.586313" stop-color="#FCEEE2"/>
<stop offset="1" stop-color="white" stop-opacity="0"/>
</radialGradient>
</defs>
</svg>
