<svg width="258" height="150" viewBox="0 0 258 150" fill="none" xmlns="http://www.w3.org/2000/svg">
<rect y="0.00012207" width="258" height="138" rx="18" fill="white"/>
<path d="M180.326 57.0291C200.677 65.354 209.68 89.426 200.436 110.795C191.191 132.165 167.199 142.739 146.848 134.414C126.498 126.089 117.494 102.017 126.739 80.6481C135.984 59.2787 159.976 48.7041 180.326 57.0291Z" fill="url(#paint0_radial)"/>
<path d="M225.305 39.3119C235.241 38.0119 244.396 44.9064 245.752 54.7111C247.109 64.5159 240.154 73.5181 230.218 74.8181C220.282 76.1181 211.128 69.2237 209.771 59.4189C208.414 49.6141 215.369 40.6119 225.305 39.3119Z" fill="url(#paint1_radial)"/>
<path d="M180.326 57.0291C200.677 65.354 209.68 89.426 200.436 110.795C191.191 132.165 167.199 142.739 146.848 134.414C126.498 126.089 117.494 102.017 126.739 80.6481C135.984 59.2787 159.976 48.7041 180.326 57.0291Z" fill="url(#paint2_radial)"/>
<path d="M225.305 39.3119C235.241 38.0119 244.396 44.9064 245.752 54.7111C247.109 64.5159 240.154 73.5181 230.218 74.8181C220.282 76.1181 211.128 69.2237 209.771 59.4189C208.414 49.6141 215.369 40.6119 225.305 39.3119Z" fill="url(#paint3_radial)"/>
<defs>
<radialGradient id="paint0_radial" cx="0" cy="0" r="1" gradientUnits="userSpaceOnUse" gradientTransform="translate(139.366 79.0574) rotate(25.1742) scale(81.6607 78.4976)">
<stop offset="0.339955" stop-color="#D5F5DC"/>
<stop offset="0.586313" stop-color="#EAFCE2"/>
<stop offset="1" stop-color="white" stop-opacity="0"/>
</radialGradient>
<radialGradient id="paint1_radial" cx="0" cy="0" r="1" gradientUnits="userSpaceOnUse" gradientTransform="translate(214.359 56.1372) rotate(-4.7276) scale(37.2608 33.3365)">
<stop offset="0.339955" stop-color="#FFD0D0"/>
<stop offset="0.586313" stop-color="#FCE2EB"/>
<stop offset="1" stop-color="white" stop-opacity="0"/>
</radialGradient>
<radialGradient id="paint2_radial" cx="0" cy="0" r="1" gradientUnits="userSpaceOnUse" gradientTransform="translate(139.366 79.0574) rotate(25.1742) scale(81.6607 78.4976)">
<stop offset="0.339955" stop-color="#D5F5DC"/>
<stop offset="0.586313" stop-color="#EAFCE2"/>
<stop offset="1" stop-color="white" stop-opacity="0"/>
</radialGradient>
<radialGradient id="paint3_radial" cx="0" cy="0" r="1" gradientUnits="userSpaceOnUse" gradientTransform="translate(214.359 56.1372) rotate(-4.7276) scale(37.2608 33.3365)">
<stop offset="0.339955" stop-color="#FFD0D0"/>
<stop offset="0.586313" stop-color="#FCE2EB"/>
<stop offset="1" stop-color="white" stop-opacity="0"/>
</radialGradient>
</defs>
</svg>
