<svg width="427" height="319" viewBox="0 0 427 319" fill="none" xmlns="http://www.w3.org/2000/svg">
<g filter="url(#filter0_f)">
<path fill-rule="evenodd" clip-rule="evenodd" d="M131.174 264.824C119.6 272.39 105.977 276.753 91.3958 276.753C49.3789 276.753 15.3174 240.525 15.3174 195.835C15.3174 161.795 35.0798 132.663 63.0674 120.713L63.0674 120.631C63.0674 62.2924 105.829 15 158.579 15C178.492 15 196.981 21.7394 212.284 33.2684C228.153 21.7253 247.199 15 267.68 15C322.376 15 366.837 62.9629 367.868 122.557C393.728 135.48 411.633 163.434 411.633 195.835C411.633 240.525 377.572 276.753 335.555 276.753C320.141 276.753 305.797 271.877 293.813 263.497C276.434 287.664 246.287 303.648 212.007 303.648C178.359 303.648 148.692 288.248 131.174 264.824Z" fill="#FDFDFF"/>
<path fill-rule="evenodd" clip-rule="evenodd" d="M131.174 264.824C119.6 272.39 105.977 276.753 91.3958 276.753C49.3789 276.753 15.3174 240.525 15.3174 195.835C15.3174 161.795 35.0798 132.663 63.0674 120.713L63.0674 120.631C63.0674 62.2924 105.829 15 158.579 15C178.492 15 196.981 21.7394 212.284 33.2684C228.153 21.7253 247.199 15 267.68 15C322.376 15 366.837 62.9629 367.868 122.557C393.728 135.48 411.633 163.434 411.633 195.835C411.633 240.525 377.572 276.753 335.555 276.753C320.141 276.753 305.797 271.877 293.813 263.497C276.434 287.664 246.287 303.648 212.007 303.648C178.359 303.648 148.692 288.248 131.174 264.824Z" fill="url(#paint0_radial)"/>
</g>
<g filter="url(#filter1_f)">
<ellipse cx="84.4396" cy="169.274" rx="71.4396" ry="70.1589" fill="url(#paint1_radial)" fill-opacity="0.54"/>
</g>
<g filter="url(#filter2_f)">
<ellipse rx="71.4396" ry="70.1589" transform="matrix(-1 0 0 1 322.334 174.878)" fill="url(#paint2_radial)" fill-opacity="0.67"/>
</g>
<path d="M180.272 160.841C179.815 158.68 177.691 157.299 175.53 157.757C173.369 158.215 171.988 160.338 172.446 162.499L180.272 160.841ZM239.176 163.03C239.927 160.952 238.852 158.659 236.774 157.908C234.697 157.157 232.404 158.232 231.652 160.31L239.176 163.03ZM172.446 162.499C173.775 168.771 178.979 172.842 184.71 175.261C190.544 177.725 197.773 178.878 204.898 178.878C212.034 178.878 219.388 177.722 225.502 175.294C231.508 172.909 237.019 168.996 239.176 163.03L231.652 160.31C230.626 163.149 227.629 165.841 222.549 167.859C217.576 169.834 211.264 170.878 204.898 170.878C198.522 170.878 192.415 169.831 187.821 167.891C183.125 165.908 180.809 163.374 180.272 160.841L172.446 162.499Z" fill="#2E323C"/>
<path d="M136.476 140.018C136.45 142.227 134.638 143.996 132.429 143.97C130.22 143.944 128.45 142.132 128.476 139.923L136.476 140.018ZM161.737 135.871C162.523 137.935 161.487 140.247 159.423 141.033C157.358 141.82 155.047 140.784 154.261 138.719L161.737 135.871ZM128.476 139.923C128.588 130.539 134.005 122.973 141.691 121.376C149.749 119.701 157.594 124.999 161.737 135.871L154.261 138.719C150.928 129.972 146.107 128.629 143.319 129.208C140.16 129.865 136.554 133.446 136.476 140.018L128.476 139.923Z" fill="#2E323C"/>
<path d="M275.317 140.974C275.281 143.183 277.042 145.003 279.251 145.039C281.459 145.075 283.28 143.314 283.316 141.105L275.317 140.974ZM251.296 137.254C250.731 139.39 252.005 141.579 254.141 142.144C256.277 142.708 258.466 141.435 259.03 139.299L251.296 137.254ZM283.316 141.105C283.475 131.41 277.495 124.228 269.881 122.839C266.088 122.147 262.074 122.963 258.655 125.48C255.255 127.983 252.692 131.974 251.296 137.254L259.03 139.299C260.067 135.377 261.773 133.119 263.398 131.922C265.005 130.739 266.775 130.404 268.445 130.709C271.757 131.313 275.42 134.715 275.317 140.974L283.316 141.105Z" fill="#2E323C"/>
<path fill-rule="evenodd" clip-rule="evenodd" d="M62.6363 117.078C64.2686 115.203 64.0726 112.361 62.1985 110.729C60.3244 109.096 57.4819 109.292 55.8496 111.166C49.1767 118.828 49.7231 128.615 53.2908 137.872C56.8607 147.135 63.7945 156.937 71.8159 166.116C87.1456 183.657 107.462 200.054 119.608 207.589C119.156 209.024 118.911 210.551 118.911 212.136C118.911 220.471 125.668 227.227 134.003 227.227C142.338 227.227 149.094 220.471 149.094 212.136C149.094 203.801 142.338 197.044 134.003 197.044C130.525 197.044 127.321 198.221 124.769 200.198C113.544 193.329 93.5739 177.336 78.5928 160.193C70.8405 151.323 64.7019 142.454 61.6887 134.636C58.6733 126.812 59.1259 121.108 62.6363 117.078Z" fill="url(#paint3_radial)"/>
<path fill-rule="evenodd" clip-rule="evenodd" d="M62.6363 117.078C64.2686 115.203 64.0726 112.361 62.1985 110.729C60.3244 109.096 57.4819 109.292 55.8496 111.166C49.1767 118.828 49.7231 128.615 53.2908 137.872C56.8607 147.135 63.7945 156.937 71.8159 166.116C87.1456 183.657 107.462 200.054 119.608 207.589C119.156 209.024 118.911 210.551 118.911 212.136C118.911 220.471 125.668 227.227 134.003 227.227C142.338 227.227 149.094 220.471 149.094 212.136C149.094 203.801 142.338 197.044 134.003 197.044C130.525 197.044 127.321 198.221 124.769 200.198C113.544 193.329 93.5739 177.336 78.5928 160.193C70.8405 151.323 64.7019 142.454 61.6887 134.636C58.6733 126.812 59.1259 121.108 62.6363 117.078Z" fill="url(#paint4_radial)" fill-opacity="0.73"/>
<path fill-rule="evenodd" clip-rule="evenodd" d="M360.442 113.815C358.078 113.051 356.781 110.514 357.545 108.149C358.31 105.784 360.847 104.487 363.212 105.252C373.046 108.432 377.773 116.386 378.879 125.695C379.956 134.757 377.729 145.474 373.661 155.888C369.562 166.379 363.434 176.976 356.24 185.913C350.251 193.353 343.358 199.848 336.079 204.108C342.341 211.749 345.069 222.177 340.915 233.079C336.015 245.936 322.005 258.173 296.16 267.191C295.482 271.552 291.711 274.889 287.16 274.889C282.13 274.889 278.053 270.811 278.053 265.781C278.053 260.751 282.13 256.674 287.16 256.674C289.371 256.674 291.397 257.461 292.974 258.77C317.881 250.124 328.969 239.152 332.505 229.873C335.971 220.779 332.631 212.071 325.682 206.387C318.674 200.656 308.36 198.379 298.758 202.406C289.488 206.295 279.921 216.499 274.95 237.494C276.852 239.163 278.052 241.612 278.052 244.341C278.052 249.372 273.975 253.449 268.945 253.449C263.915 253.449 259.837 249.372 259.837 244.341C259.837 240.293 262.478 236.861 266.132 235.676C271.522 212.681 282.505 199.464 295.277 194.107C307.199 189.107 319.838 191.342 329.052 197.674C335.848 194.348 342.871 188.168 349.229 180.269C355.849 172.045 361.514 162.246 365.278 152.613C369.071 142.903 370.776 133.769 369.942 126.757C369.138 119.992 366.112 115.649 360.442 113.815Z" fill="url(#paint5_radial)"/>
<path fill-rule="evenodd" clip-rule="evenodd" d="M360.442 113.815C358.078 113.051 356.781 110.514 357.545 108.149C358.31 105.784 360.847 104.487 363.212 105.252C373.046 108.432 377.773 116.386 378.879 125.695C379.956 134.757 377.729 145.474 373.661 155.888C369.562 166.379 363.434 176.976 356.24 185.913C350.251 193.353 343.358 199.848 336.079 204.108C342.341 211.749 345.069 222.177 340.915 233.079C336.015 245.936 322.005 258.173 296.16 267.191C295.482 271.552 291.711 274.889 287.16 274.889C282.13 274.889 278.053 270.811 278.053 265.781C278.053 260.751 282.13 256.674 287.16 256.674C289.371 256.674 291.397 257.461 292.974 258.77C317.881 250.124 328.969 239.152 332.505 229.873C335.971 220.779 332.631 212.071 325.682 206.387C318.674 200.656 308.36 198.379 298.758 202.406C289.488 206.295 279.921 216.499 274.95 237.494C276.852 239.163 278.052 241.612 278.052 244.341C278.052 249.372 273.975 253.449 268.945 253.449C263.915 253.449 259.837 249.372 259.837 244.341C259.837 240.293 262.478 236.861 266.132 235.676C271.522 212.681 282.505 199.464 295.277 194.107C307.199 189.107 319.838 191.342 329.052 197.674C335.848 194.348 342.871 188.168 349.229 180.269C355.849 172.045 361.514 162.246 365.278 152.613C369.071 142.903 370.776 133.769 369.942 126.757C369.138 119.992 366.112 115.649 360.442 113.815Z" fill="url(#paint6_radial)"/>
<defs>
<filter id="filter0_f" x="0.317383" y="0" width="426.316" height="318.648" filterUnits="userSpaceOnUse" color-interpolation-filters="sRGB">
<feFlood flood-opacity="0" result="BackgroundImageFix"/>
<feBlend mode="normal" in="SourceGraphic" in2="BackgroundImageFix" result="shape"/>
<feGaussianBlur stdDeviation="7.5" result="effect1_foregroundBlur"/>
</filter>
<filter id="filter1_f" x="6" y="92.1154" width="156.879" height="154.318" filterUnits="userSpaceOnUse" color-interpolation-filters="sRGB">
<feFlood flood-opacity="0" result="BackgroundImageFix"/>
<feBlend mode="normal" in="SourceGraphic" in2="BackgroundImageFix" result="shape"/>
<feGaussianBlur stdDeviation="3.5" result="effect1_foregroundBlur"/>
</filter>
<filter id="filter2_f" x="243.895" y="97.7196" width="156.879" height="154.318" filterUnits="userSpaceOnUse" color-interpolation-filters="sRGB">
<feFlood flood-opacity="0" result="BackgroundImageFix"/>
<feBlend mode="normal" in="SourceGraphic" in2="BackgroundImageFix" result="shape"/>
<feGaussianBlur stdDeviation="3.5" result="effect1_foregroundBlur"/>
</filter>
<radialGradient id="paint0_radial" cx="0" cy="0" r="1" gradientUnits="userSpaceOnUse" gradientTransform="translate(174.583 104.556) rotate(79.4569) scale(212.553 294.148)">
<stop offset="0.105202" stop-color="white" stop-opacity="0"/>
<stop offset="0.623006" stop-color="#E9F0FF" stop-opacity="0.764591"/>
<stop offset="0.979167" stop-color="#D2DCFF"/>
</radialGradient>
<radialGradient id="paint1_radial" cx="0" cy="0" r="1" gradientUnits="userSpaceOnUse" gradientTransform="translate(98.7796 169.274) rotate(101.552) scale(71.6094 72.9166)">
<stop stop-color="#FCDDE1"/>
<stop offset="0.21875" stop-color="#FFD2D2" stop-opacity="0.78125"/>
<stop offset="1" stop-color="#FCDDE1" stop-opacity="0"/>
</radialGradient>
<radialGradient id="paint2_radial" cx="0" cy="0" r="1" gradientUnits="userSpaceOnUse" gradientTransform="translate(85.7796 70.1589) rotate(101.552) scale(71.6094 72.9166)">
<stop stop-color="#FCDDE1"/>
<stop offset="0.21875" stop-color="#FFD2D2" stop-opacity="0.78125"/>
<stop offset="1" stop-color="#FCDDE1" stop-opacity="0"/>
</radialGradient>
<radialGradient id="paint3_radial" cx="0" cy="0" r="1" gradientUnits="userSpaceOnUse" gradientTransform="translate(84.3343 168.425) rotate(56.4071) scale(70.5923 59.0655)">
<stop stop-color="#9497AF"/>
<stop offset="1" stop-color="#303141"/>
</radialGradient>
<radialGradient id="paint4_radial" cx="0" cy="0" r="1" gradientUnits="userSpaceOnUse" gradientTransform="translate(138.376 207.673) rotate(120.677) scale(16.2857 13.6265)">
<stop stop-color="#9297B3"/>
<stop offset="1" stop-color="white" stop-opacity="0"/>
</radialGradient>
<radialGradient id="paint5_radial" cx="0" cy="0" r="1" gradientUnits="userSpaceOnUse" gradientTransform="translate(342.322 189.961) rotate(112.051) scale(110.099 77.337)">
<stop stop-color="#8C8EA6"/>
<stop offset="1" stop-color="#303141"/>
</radialGradient>
<radialGradient id="paint6_radial" cx="0" cy="0" r="1" gradientUnits="userSpaceOnUse" gradientTransform="translate(267.365 268.175) rotate(-56.5921) scale(32.4835 22.8173)">
<stop stop-color="#76798F"/>
<stop offset="1" stop-color="white" stop-opacity="0"/>
</radialGradient>
</defs>
</svg>
