<svg width="258" height="148" viewBox="0 0 258 148" fill="none" xmlns="http://www.w3.org/2000/svg">
<rect width="258" height="138" rx="18" fill="white"/>
<path d="M145.816 116.093C126.035 98.7525 124.264 68.4216 141.861 48.3475C159.459 28.2733 189.76 26.0575 209.542 43.3983C229.323 60.7391 231.094 91.0699 213.497 111.144C195.899 131.218 165.598 133.434 145.816 116.093Z" fill="url(#paint0_radial)"/>
<path d="M145.816 116.093C126.035 98.7525 124.264 68.4216 141.861 48.3475C159.459 28.2733 189.76 26.0575 209.542 43.3983C229.323 60.7391 231.094 91.0699 213.497 111.144C195.899 131.218 165.598 133.434 145.816 116.093Z" fill="url(#paint1_radial)"/>
<defs>
<radialGradient id="paint0_radial" cx="0" cy="0" r="1" gradientUnits="userSpaceOnUse" gradientTransform="translate(198.91 107.893) rotate(-135.96) scale(97.7882 89.9365)">
<stop offset="0.339955" stop-color="#FFF1BE"/>
<stop offset="0.586313" stop-color="#FFF2D1"/>
<stop offset="1" stop-color="white" stop-opacity="0"/>
</radialGradient>
<radialGradient id="paint1_radial" cx="0" cy="0" r="1" gradientUnits="userSpaceOnUse" gradientTransform="translate(198.91 107.893) rotate(-135.96) scale(97.7882 89.9365)">
<stop offset="0.339955" stop-color="#FFF1BE"/>
<stop offset="0.586313" stop-color="#FFF2D1"/>
<stop offset="1" stop-color="white" stop-opacity="0"/>
</radialGradient>
</defs>
</svg>
